<?xml version="1.0" standalone="no"?>
<!DOCTYPE svg PUBLIC "-//W3C//DTD SVG 1.1//EN" "http://www.w3.org/Graphics/SVG/1.1/DTD/svg11.dtd" >
<svg xmlns="http://www.w3.org/2000/svg">
<metadata>Generated by IcoMoon</metadata>
<defs>
<font id="Fidelity-Icon-Font" horiz-adv-x="1024">
<font-face units-per-em="1024" ascent="960" descent="-64" />
<missing-glyph horiz-adv-x="1024" />
<glyph unicode="&#x20;" horiz-adv-x="512" d="" />
<glyph unicode="&#xe900;" glyph-name="verified" d="M704.043 469.334c-129.558-0.17-234.539-105.151-234.709-234.693 0.17-129.557 105.162-234.519 234.698-234.64 129.532 0.146 234.49 105.103 234.636 234.61-0.121 129.562-105.083 234.553-234.608 234.723zM704.043 42.667c-105.993 0.097-191.897 85.971-192.043 191.943 0.121 106.027 86.029 191.935 192.031 192.057 105.998-0.146 191.872-86.049 191.969-192.033-0.146-105.966-86.001-191.821-191.943-191.967zM808.405 310.443l-85.333-170.667c-3.596-7.037-10.793-11.772-19.097-11.772-5.906 0-11.253 2.395-15.122 6.267l-84.992 85.333c-3.682 3.828-5.95 9.039-5.95 14.781 0 11.782 9.551 21.333 21.333 21.333 5.784 0 11.030-2.302 14.872-6.039l64.038-64.294 72.064 144.128c3.581 7.055 10.782 11.806 19.093 11.806 11.787 0 21.342-9.555 21.342-21.342 0-3.476-0.831-6.757-2.305-9.657zM192 682.667c-11.782 0-21.333-9.551-21.333-21.333v-512c0-11.782 9.551-21.333 21.333-21.333h256c11.782 0 21.333 9.551 21.333 21.333s-9.551 21.333-21.333 21.333h-234.667v469.333h42.667v-21.333c0-11.782 9.551-21.333 21.333-21.333h213.333c11.782 0 21.333 9.551 21.333 21.333v21.333h42.667v-106.667c0-11.782 9.551-21.333 21.333-21.333s21.333 9.551 21.333 21.333v128c0 11.782-9.551 21.333-21.333 21.333h-64v42.667h128v-192c0-11.782 9.551-21.333 21.333-21.333s21.333 9.551 21.333 21.333v213.333c0 11.782-9.551 21.333-21.333 21.333h-193.579c-6.784 45.184-35.285 85.333-83.755 85.333s-76.971-40.149-83.755-85.333h-193.579c-11.782 0-21.333-9.551-21.333-21.333v-618.667c0-57.429 27.904-85.333 85.333-85.333h277.333c11.782 0 21.333 9.551 21.333 21.333s-9.551 21.333-21.333 21.333h-277.333c-33.493 0-42.667 9.173-42.667 42.667v597.333h128v-42.667h-64zM320 725.334c11.782 0 21.333 9.551 21.333 21.333 0 25.685 11.392 64 42.667 64s42.667-38.315 42.667-64c0-11.782 9.551-21.333 21.333-21.333h21.333v-85.333h-170.667v85.333h21.333zM490.667 469.334h-213.333c-11.782 0-21.333 9.551-21.333 21.333s9.551 21.333 21.333 21.333h213.333c11.782 0 21.333-9.551 21.333-21.333s-9.551-21.333-21.333-21.333zM448 384h-170.667c-11.782 0-21.333 9.551-21.333 21.333s9.551 21.333 21.333 21.333h170.667c11.782 0 21.333-9.551 21.333-21.333s-9.551-21.333-21.333-21.333zM426.667 320c0-11.782-9.551-21.333-21.333-21.333h-128c-11.782 0-21.333 9.551-21.333 21.333s9.551 21.333 21.333 21.333h128c11.782 0 21.333-9.551 21.333-21.333zM426.667 234.667c0-11.782-9.551-21.333-21.333-21.333h-128c-11.782 0-21.333 9.551-21.333 21.333s9.551 21.333 21.333 21.333h128c11.782 0 21.333-9.551 21.333-21.333z" />
<glyph unicode="&#xe901;" glyph-name="arrow-down" d="M938.667 512.043l-426.709-512-426.624 512.853h256v340.48h341.333v-340.48l256-0.853z" />
<glyph unicode="&#xe902;" glyph-name="arrow-up" d="M85.333 341.334l426.709 512 426.624-512.896h-256v-340.437h-341.333v340.437l-256 0.896z" />
<glyph unicode="&#xe903;" glyph-name="card-cvc" d="M928 725.291h-832c-53-0.049-95.951-43-96-95.995v-402.309c0-52.907 43.051-99.669 96-99.669h831.317c52.949 0 96.683 46.763 96.683 99.669v402.304c-0.049 53-43 95.951-95.995 96zM96 682.624h832c29.312 0 53.333-23.979 53.333-53.333l0.683-32.64-939.349 0.683v31.957c0 29.355 23.979 53.333 53.333 53.333zM928 169.984h-832c-29.355 0-53.333 23.979-53.333 53.333v288.683h938.667v-288.683c0-29.312-24.021-53.333-53.333-53.333zM614.016 416.171v22.699c7.416 0.189 14.519 0.957 21.431 2.263 5.323 1.239 10.582 4.415 14.513 8.803 2.885 3.386 5.008 7.463 6.085 11.947 0.656 2.22 1.055 4.556 1.148 6.972l26.071 0.052v-169.856h-32v117.163h-37.248zM708.821 332.032c4.437 11.392 15.061 23.339 31.659 35.968 14.336 11.008 23.68 18.944 27.861 23.723 5.979 6.344 9.682 14.891 9.771 24.302 0.011 0.308 0.017 0.649 0.017 0.991 0 6.336-2.089 12.183-5.616 16.892-3.535 4.354-8.973 7.161-15.066 7.161-0.34 0-0.678-0.009-1.014-0.026-9.425 0.002-15.91-3.753-19.324-11.347-2.048-4.352-3.157-11.264-3.499-20.821h-30.336c0.512 14.421 2.987 26.112 7.339 35.072 8.405 16.896 23.125 25.387 44.459 25.387 16.811 0 30.165-5.035 40.149-14.933 9.856-9.899 14.933-23.040 14.933-39.595 0-12.459-3.541-23.637-10.581-33.493-4.693-6.443-12.203-13.611-22.656-21.589l-12.501-9.472c-7.893-6.101-13.269-10.24-16.043-13.013-2.921-2.626-5.402-5.664-7.371-9.038l69.365-0.178v-29.355h-108.8c0.341 12.203 2.731 23.296 7.253 33.365zM861.44 353.664c0-6.656 1.024-12.16 2.987-16.512 3.669-8.021 10.411-11.989 20.096-11.989 0.066-0.001 0.143-0.001 0.221-0.001 6.062 0 11.535 2.518 15.431 6.565 4.444 4.359 6.662 10.673 6.662 18.908 0 10.837-4.096 18.176-12.331 21.76-4.693 2.091-12.075 3.072-22.229 3.072v23.467c9.899 0.085 16.811 1.152 20.779 3.072 6.656 3.243 9.984 9.685 9.984 19.413 0.015 0.314 0.024 0.682 0.024 1.052 0 5.495-1.942 10.536-5.176 14.476-3.329 3.58-8.114 5.838-13.427 5.838-0.384 0-0.765-0.012-1.143-0.035-7.201 0.003-12.407-2.344-15.863-7.251-3.035-4.832-4.836-10.706-4.836-17 0-0.894 0.036-1.78 0.108-2.656l-28.594 0.115c0.341 8.32 1.664 16.085 4.011 23.467 2.603 6.485 6.443 12.416 11.776 17.92 3.927 3.826 8.647 6.859 13.889 8.826 5.866 2.054 12.65 3.163 20.629 3.163 14.763 0 26.667-4.096 35.755-12.245 9.131-8.235 13.611-19.157 13.611-32.981 0.010-0.326 0.016-0.71 0.016-1.096 0-8.948-3.040-17.186-8.144-23.737-2.74-3.6-6.369-6.517-10.557-8.419 2.6-0.070 6.611-2.588 11.816-7.75 7.808-7.68 11.648-18.261 11.648-31.573 0-13.995-4.523-26.325-13.653-36.992-9.045-10.539-22.443-15.872-40.277-15.872-21.888 0-37.12 7.68-45.653 22.997-4.48 8.064-6.997 18.731-7.509 32h29.952z" />
<glyph unicode="&#xe905;" glyph-name="post" d="M929.152 465.75l-118.485 79.019v287.232c0 11.782-9.551 21.333-21.333 21.333h-554.667c-11.782 0-21.333-9.551-21.333-21.333v-287.232l-118.741-79.275c-2.503-1.706-4.571-3.856-6.135-6.354-0.18-0.302-0.18-0.516-0.265-0.686-0.427-0.768-0.512-1.536-0.853-2.304-0.941-2.035-1.567-4.4-1.746-6.889 0.039-0.449-0.26-0.833-0.26-1.26v-373.845c0-40.875 33.28-74.155 74.197-74.155h704.896c40.96 0 74.24 33.28 74.24 74.155v373.845c-0.012 7.372-3.754 13.867-9.439 17.701zM880.043 447.19l-69.376-40.405v86.656l69.376-46.251zM213.333 408.363l-66.901 40.491 66.901 44.587v-85.077zM864.469 42.667h-704.939c0 0 0 0 0 0-17.399 0-31.506 14.092-31.531 31.486v336.002l179.115-108.416c3.148-1.947 6.965-3.101 11.052-3.101 7.696 0 14.436 4.091 18.164 10.217 1.98 3.238 3.122 7.044 3.122 11.117 0 7.696-4.076 14.441-10.187 18.193l-73.522 44.554c0.043 0.469 0.256 0.811 0.256 1.28v426.667h512v-428.715l-74.752-43.563c-6.339-3.776-10.519-10.595-10.519-18.389 0-11.76 9.516-21.298 21.268-21.333 0.032 0 0.065 0 0.099 0 3.915 0 7.578 1.078 10.709 2.954l181.196 105.547v-333.013c-0.048-17.386-14.141-31.464-31.528-31.488zM803.2 122.88c4.583-3.936 7.468-9.738 7.468-16.213 0-11.783-9.552-21.334-21.334-21.334-5.307 0-10.162 1.938-13.895 5.145l-143.332 122.856h-240.213l-143.36-122.88c-3.705-3.183-8.559-5.121-13.867-5.121-11.783 0-21.334 9.552-21.334 21.334 0 6.475 2.885 12.277 7.439 16.19l149.362 128.024c3.708 3.176 8.561 5.112 13.865 5.12h256.002c5.077 0 10.027-1.835 13.867-5.12l149.333-128zM341.333 704c0 11.782 9.551 21.333 21.333 21.333h298.667c11.782 0 21.333-9.551 21.333-21.333s-9.551-21.333-21.333-21.333h-298.667c-11.782 0-21.333 9.551-21.333 21.333zM341.333 576c0 11.782 9.551 21.333 21.333 21.333h298.667c11.782 0 21.333-9.551 21.333-21.333s-9.551-21.333-21.333-21.333h-298.667c-11.782 0-21.333 9.551-21.333 21.333zM341.333 448c0 11.782 9.551 21.333 21.333 21.333h298.667c11.782 0 21.333-9.551 21.333-21.333s-9.551-21.333-21.333-21.333h-298.667c-11.782 0-21.333 9.551-21.333 21.333z" />
<glyph unicode="&#xe906;" glyph-name="search" d="M932.352 36.48l-254.848 254.848c51.556 59.199 82.987 137.104 82.987 222.35 0 0.010 0 0.020 0 0.030 0 187.22-151.424 339.54-337.493 339.54-186.155 0-337.579-152.32-337.579-339.541 0-187.264 151.424-339.627 337.579-339.627 86.601 0.089 165.486 33.048 224.869 87.070l254.321-254.835c3.832-3.705 9.060-5.989 14.821-5.989 11.782 0 21.333 9.551 21.333 21.333 0 5.761-2.283 10.988-5.994 14.827zM422.997 216.747c-162.645 0-294.912 133.205-294.912 296.96 0 163.712 132.267 296.875 294.912 296.875 162.603 0 294.827-133.163 294.827-296.875s-132.224-296.96-294.827-296.96z" />
<glyph unicode="&#xe907;" glyph-name="star-fill" d="M512 853.334l111.275-298.667h315.392l-259.712-220.757 111.275-333.909-278.229 204.075-278.315-204.075 111.317 333.909-259.669 220.757h315.435l111.232 298.667z" />
<glyph unicode="&#xe908;" glyph-name="star-line" d="M512 730.624l71.296-190.123 10.325-27.819h228.395l-170.624-146.176-22.101-18.688 9.173-27.392 68.864-206.72-195.328 143.275-195.413-143.275 68.907 206.72 9.173 27.392-22.101 18.688-170.624 146.176h228.437l10.325 27.819 71.296 190.123zM512 853.334l-111.232-297.984h-315.435l259.712-221.397-111.36-333.952 278.315 204.075 278.229-204.075-111.275 333.909 259.712 221.44h-315.392l-111.275 297.984z" />
<glyph unicode="&#xe909;" glyph-name="account" d="M798.165 254.080l-158.165 72.021v84.693c51.712 44.928 85.376 116.139 85.376 196.395 0 135.723-95.701 246.144-213.376 246.144-117.632 0-213.333-110.421-213.333-246.144 0-81.109 34.347-153.003 86.997-197.845h-1.664v-83.328l-156.373-71.253c-49.493-17.323-99.627-66.432-99.627-126.763v-85.333h768v85.333c0 60.373-50.133 109.483-97.835 126.080zM512 810.667c84.779 0 154.752-74.24 167.936-170.923l-1.237-0.128c-61.184-11.691-98.005 3.968-126.933 53.803l-19.285 33.067-18.005-33.835c-16.469-31.019-82.816-52.651-131.968-52.651-15.232 0-24.533 3.712-37.163 10.197 16.597 91.563 84.949 160.469 166.656 160.469zM341.504 605.184c11.52-4.608 24.107-7.851 41.003-7.851 50.816 0 113.365 17.237 149.248 49.749 28.672-36.181 65.237-53.717 112.171-53.717 11.819 0 24.704 1.579 37.973 3.797-4.48-107.435-78.635-193.365-169.856-193.365-93.568 0-169.6 90.155-170.539 201.387zM853.333 85.334h-682.667v42.667c0 35.115 30.549 72.32 72.832 87.253l183.168 83.328v83.243c24.801-12.989 54.167-20.633 85.314-20.693 30.355 0 59.198 7.467 85.352 20.651v-83.2l184.96-84.053c40.491-14.165 71.040-51.371 71.040-86.528v-42.667z" />
<glyph unicode="&#xe90a;" glyph-name="check-mail" d="M767.659 525.568c0 40.192-33.323 72.875-73.515 72.875l-359.296-0.64c-40.149 0-79.147-32.683-79.147-72.875v-240.427c0-40.235 38.656-72.917 78.848-72.917l359.979 0.683c40.149 0 73.173 32.683 73.173 72.917v240.384zM724.992 285.184c-0.312-16.773-13.982-30.251-30.8-30.251-0.017 0-0.034 0-0.050 0l-359.336-0.683c-16.683 0-36.48 13.568-36.48 30.251v240.427c0 16.683 19.499 30.208 36.181 30.208l359.979 0.683c16.683 0 30.507-13.525 30.507-30.208v-240.427zM673.92 335.19c4.76-3.926 7.772-9.825 7.772-16.428 0-11.735-9.513-21.248-21.248-21.248-0.077 0-0.155 0-0.232 0.001-0.019 0-0.055 0-0.091 0-5.17 0-9.908 1.854-13.583 4.934l-91.53 76.218-31.275-25.173c-3.576-2.803-8.14-4.495-13.099-4.495s-9.523 1.692-13.145 4.53l-36.049 28.978-86.741-80.085c-3.663-3.084-8.434-4.958-13.643-4.958-6.584 0-12.469 2.995-16.366 7.696-3.1 3.7-4.966 8.466-4.966 13.668 0 6.561 2.968 12.429 7.634 16.335l80.545 74.395-79.915 64.299c-5.033 3.937-8.238 10.010-8.238 16.832 0 11.772 9.543 21.315 21.315 21.315 4.95 0 9.506-1.687 13.124-4.518l136.444-110.087 136.491 110.123c3.69 3.136 8.509 5.043 13.774 5.043 11.782 0 21.333-9.551 21.333-21.333 0-7.138-3.506-13.457-8.889-17.33l-84.458-67.926 85.035-70.784zM286.72 760.064c-2.092 3.242-3.335 7.202-3.335 11.453 0 7.524 3.895 14.138 9.779 17.936 133.844 85.128 313.215 85.128 446.804 0.051 5.97-3.846 9.867-10.46 9.867-17.984 0-11.776-9.547-21.323-21.323-21.323-4.252 0-8.214 1.245-11.54 3.39-119.767 76.323-280.791 76.323-400.812-0.051-3.246-2.122-7.222-3.384-11.492-3.384-7.524 0-14.133 3.919-17.897 9.826zM837.504 204.587c36.686 56.618 58.496 125.838 58.496 200.152 0 0.104 0 0.208 0 0.313 0 0.070 0 0.173 0 0.275 0 74.301-21.81 143.508-59.378 201.568-1.227 1.798-2.48 5.775-2.48 10.044 0 11.789 9.557 21.346 21.346 21.346 7.52 0 14.131-3.888 17.933-9.764 40.938-63.2 65.245-140.361 65.245-223.198 0-0.101 0-0.202 0-0.303 0-79.344-22.528-156.571-65.152-223.344-3.928-5.409-10.232-8.886-17.348-8.886-11.806 0-21.376 9.57-21.376 21.376 0 3.828 1.006 7.42 2.768 10.528zM148.821 182.016c-40.809 63.084-65.067 140.185-65.067 222.952 0 0.128 0 0.257 0 0.385 0 79.34 22.485 156.567 65.067 223.34 3.874 5.934 10.482 9.8 17.994 9.8 4.246 0 8.203-1.235 11.532-3.366 5.905-3.774 9.821-10.388 9.821-17.917 0-4.243-1.244-8.195-3.386-11.513-36.583-56.522-58.36-125.71-58.36-199.984 0-0.134 0-0.267 0-0.401 0-71.147 20.224-140.481 58.411-200.427 2.123-3.255 3.386-7.24 3.386-11.52 0-11.759-9.532-21.291-21.291-21.291-0.035 0-0.071 0-0.106 0-7.541 0.003-14.17 3.932-17.949 9.855zM740.565 96.854c2.1-3.238 3.348-7.198 3.348-11.449 0-7.516-3.902-14.12-9.791-17.898-63.173-40.86-140.278-65.118-223.049-65.118-0.109 0-0.218 0-0.327 0-0.047 0-0.122 0-0.197 0-82.845 0-160.025 24.257-224.825 66.055-4.333 2.858-8.23 9.471-8.23 16.995 0 11.776 9.547 21.323 21.323 21.323 4.252 0 8.214-1.245 11.54-3.39 119.937-76.28 280.876-76.365 400.812 0.051 9.813 6.144 23.040 3.413 29.397-6.571zM930.816 36.438c3.869-3.864 6.263-9.204 6.263-15.104 0-11.789-9.557-21.345-21.345-21.345-5.889 0-11.221 2.385-15.083 6.241l-128 128c-3.705 3.832-5.989 9.060-5.989 14.821 0 11.782 9.551 21.333 21.333 21.333 5.761 0 10.988-2.283 14.827-5.994l127.994-127.952zM248.192 164.438c3.859-3.86 6.246-9.193 6.246-15.083s-2.387-11.222-6.246-15.083l-128.043-128c-3.872-3.852-9.21-6.232-15.104-6.232-5.873 0-11.194 2.364-15.063 6.192-3.857 3.858-6.244 9.191-6.244 15.081s2.387 11.222 6.246 15.083l128.043 128c3.862 3.872 9.203 6.267 15.104 6.267 5.879 0 11.203-2.378 15.062-6.225zM89.984 816.939c-3.488 3.786-5.626 8.861-5.626 14.436 0 11.782 9.551 21.333 21.333 21.333 5.586 0 10.67-2.147 14.473-5.66l127.986-127.987c3.705-3.832 5.989-9.060 5.989-14.821 0-11.782-9.551-21.333-21.333-21.333-5.761 0-10.988 2.283-14.827 5.994l-127.994 128.037zM772.608 688.939c-3.859 3.86-6.246 9.193-6.246 15.083s2.387 11.222 6.246 15.083l128.043 128c3.853 3.893 9.197 6.303 15.104 6.303s11.251-2.41 15.102-6.301c3.861-3.862 6.248-9.195 6.248-15.084s-2.387-11.222-6.246-15.083l-128.043-128c-3.872-3.851-9.21-6.232-15.104-6.232s-11.232 2.381-15.105 6.233z" />
<glyph unicode="&#xe90b;" glyph-name="help" d="M491.221 257.835c0.347 0.013 0.756 0.021 1.165 0.021 18.239 0 33.024-14.785 33.024-33.024s-14.785-33.024-33.024-33.024c-0.425 0-0.848 0.008-1.269 0.024-17.651 0.667-31.755 15.186-31.755 33 0 17.829 14.128 32.358 31.8 33.002zM512.555 322.56v79.488c56.535 10.577 98.767 59.501 98.859 118.305 0 66.314-53.931 120.245-120.192 120.245s-120.235-53.931-120.235-120.235c0-11.782 9.551-21.333 21.333-21.333s21.333 9.551 21.333 21.333c0.048 42.805 34.724 77.495 77.518 77.568 42.759 0 77.532-34.816 77.532-77.568s-34.816-77.568-77.525-77.568c-11.782 0-21.333-9.551-21.333-21.333v-98.901c0-11.794 9.561-21.355 21.355-21.355s21.355 9.561 21.355 21.355zM938.667 426.667c0 235.264-191.403 426.667-426.667 426.667s-426.667-191.403-426.667-426.667 191.403-426.667 426.667-426.667 426.667 191.403 426.667 426.667zM896 426.667c0-211.712-172.245-384-384-384s-384 172.288-384 384 172.245 384 384 384 384-172.288 384-384z" />
<glyph unicode="&#xe90c;" glyph-name="lock-account" d="M1001.429 213.206h-20.096v24.661c0 76.373-56.491 139.179-129.195 139.179-72.661 0-126.805-60.8-126.805-137.173v-26.667h-21.717c-11.776 0-20.949 0-20.949-11.819v-256c0-11.776 9.259-30.592 21.035-30.592h297.771c11.776 0 22.485 18.816 22.485 30.592v256c0.043 11.819-10.752 11.819-22.528 11.819zM768 238.55c0 52.821 34.987 95.829 84.139 95.829s86.528-43.008 86.528-95.829v-25.344h-170.667v25.344zM981.333-42.794h-256v213.333h256v-213.333zM875.989 50.219v-28.757c0-11.782-9.551-21.333-21.333-21.333s-21.333 9.551-21.333 21.333l-1.365 27.861c-12.677 7.308-21.114 20.718-21.29 36.114 0 23.589 19.102 42.692 42.666 42.692s42.667-19.103 42.667-42.667c-0.161-14.861-8.049-27.845-19.832-35.139zM640 298.667v112.128c51.712 44.928 85.376 116.139 85.376 196.395 0 135.723-95.701 246.144-213.376 246.144-117.632 0-213.333-110.421-213.333-246.144 0-81.109 34.347-153.003 86.997-197.845h-1.664v-83.328l-156.373-71.253c-49.493-17.323-99.627-66.432-99.627-126.763v-85.333h426.667v42.667h-384v42.667c0 35.115 30.549 72.32 72.832 87.253l183.168 83.328v83.243c24.801-12.989 54.167-20.633 85.314-20.693 30.355 0 59.198 7.467 85.352 20.651v-83.115h42.667zM512 810.667c84.779 0 154.752-74.24 167.936-170.923l-1.237-0.128c-61.184-11.691-98.005 3.968-126.933 53.803l-19.285 33.067-18.005-33.835c-16.469-31.019-82.816-52.651-131.968-52.651-15.232 0-24.533 3.712-37.163 10.197 16.597 91.563 84.949 160.469 166.656 160.469zM512 403.798c-93.525 0-169.557 90.155-170.496 201.387 11.52-4.608 24.107-7.851 41.003-7.851 50.816 0 113.365 17.237 149.248 49.749 28.672-36.181 65.237-53.717 112.171-53.717 11.819 0 24.704 1.579 37.973 3.797-4.523-107.392-78.635-193.365-169.899-193.365z" />
<glyph unicode="&#xe90d;" glyph-name="messages" d="M823.253 682.624h-621.653c-40.32 0-73.173-32.811-73.173-73.131v-365.696c0-40.32 32.853-73.131 73.173-73.131h621.653c40.32 0 73.173 32.811 73.173 73.131v365.696c0 40.363-32.811 73.131-73.173 73.131zM818.56 639.958l-306.133-244.949-306.133 244.949h612.267zM853.76 243.798c0-16.853-13.653-30.464-30.507-30.464h-621.653c-0.013 0-0.028 0-0.043 0-16.825 0-30.464 13.639-30.464 30.464 0 0 0 0 0 0v365.696c0 1.195 0.555 2.261 0.683 3.413l327.296-261.888c3.629-2.863 8.269-4.593 13.312-4.593s9.683 1.729 13.358 4.627l327.25 261.853c0.128-1.152 0.683-2.219 0.683-3.413v-365.696z" />
<glyph unicode="&#xe90e;" glyph-name="mobile" d="M721.536-0h-420.949c-49.152 0-86.571 30.293-86.571 79.36l-0.512 699.904c0 49.152 37.419 74.069 86.571 74.069h420.949c49.109 0 89.131-29.355 89.131-78.464l0.512-700.544c0-49.067-40.021-74.325-89.131-74.325zM300.075 810.667c-25.6 0-43.904-10.496-43.904-36.096l0.512-700.501c0-25.6 18.304-31.36 43.904-31.36h420.949c25.643-0.043 46.464 11.392 46.464 36.949l-0.512 699.904c0 25.643-20.821 31.104-46.464 31.104h-420.949zM511.957 149.334c-18.722 0-33.899-15.177-33.899-33.899s15.177-33.899 33.899-33.899c0.623-0.041 1.351-0.064 2.084-0.064 18.757 0 33.963 15.206 33.963 33.963s-15.206 33.963-33.963 33.963c-0.733 0-1.461-0.023-2.183-0.069zM704 170.667h-384.939c-11.776 0-21.589 18.219-21.589 29.995l0.512 506.667c0 11.776 9.813 18.005 21.589 18.005h384.939c11.776 0 21.333 1.109 21.333-10.667l-0.512-517.333c0-11.776-9.557-26.667-21.333-26.667zM340.395 213.334h342.272l0.512 469.333h-342.272l-0.512-469.333zM509.483 780.587c0 0 0 0 0 0-9.308 0-16.853-7.545-16.853-16.853 0-0.030 0-0.060 0-0.090 0 0.005 0 0.005 0 0.005 0-9.343 7.574-16.917 16.917-16.917s16.917 7.574 16.917 16.917c0 0 0 0 0 0 0 0.013 0 0.028 0 0.043 0 9.331-7.565 16.896-16.896 16.896-0.030 0-0.060 0-0.090 0z" />
<glyph unicode="&#xe90f;" glyph-name="watchlist" d="M891.392 432.086c-6.912 9.003-171.179 220.928-379.392 220.928s-372.523-211.925-379.392-220.928c-2.896-3.766-4.641-8.549-4.641-13.739s1.745-9.972 4.68-13.792c6.83-8.949 171.139-220.874 379.352-220.874s372.48 211.925 379.392 220.928c2.876 3.773 4.608 8.554 4.608 13.739s-1.732 9.965-4.649 13.794zM512 227.883c-158.549 0-295.296 144.64-334.635 190.464 39.296 45.824 175.787 190.421 334.635 190.421 158.549 0 295.296-144.64 334.635-190.464-39.296-45.824-175.787-190.421-334.635-190.421zM512 571.264c-81.28 0-147.456-68.565-147.456-152.917 0-84.309 66.176-152.875 147.456-152.875s147.456 68.565 147.456 152.875c0 84.309-66.176 152.917-147.456 152.917zM512 309.675c-57.813 0-104.789 48.725-104.789 108.629 0 59.947 47.019 108.672 104.789 108.672s104.789-48.725 104.789-108.672c0-59.904-47.019-108.629-104.789-108.629zM596.395 418.347c0-48.256-37.888-87.509-84.395-87.509-46.549 0-84.437 39.253-84.437 87.509-0.002 0.115-0.003 0.252-0.003 0.388 0 11.869 9.503 21.518 21.315 21.756 11.798 0 21.355-9.898 21.355-22.144 0-23.893 18.731-43.307 41.771-43.307s41.728 19.413 41.728 43.307-18.688 43.264-41.728 43.264c-11.834 0.238-21.336 9.887-21.336 21.756 0 0.121 0.001 0.243 0.003 0.364-0.002 0.097-0.004 0.233-0.004 0.37 0 11.869 9.503 21.518 21.315 21.756 46.571 0 84.417-39.253 84.417-87.509z" />
<glyph unicode="&#xe910;" glyph-name="add" d="M938.667 341.334h-341.333v-341.333h-170.667v341.333h-341.333v170.667h341.333v341.333h170.667v-341.333h341.333v-170.667z" />
<glyph unicode="&#xe911;" glyph-name="close" d="M597.333 426.667l341.333-341.333-85.333-85.333-341.333 341.333-340.437-341.333-86.229 85.333 341.333 341.333-341.333 341.248 85.333 85.419 341.333-341.333 341.333 341.333 85.333-85.333-341.333-341.333z" />
<glyph unicode="&#xe912;" glyph-name="confirm" d="M728.704 604.203l35.2-35.157-357.632-357.589-35.2 35.243 0.427 0.427-113.28 113.237 35.243 35.2 113.28-113.237 321.963 321.877zM938.667 426.838c0-235.349-191.445-426.837-426.795-426.837-235.221 0-426.581 191.488-426.581 426.837 0 235.179 191.36 426.496 426.581 426.496 235.349 0 426.795-191.317 426.795-426.496zM896 426.838c0 211.627-172.331 383.829-384.128 383.829-211.712 0-383.915-172.203-383.915-383.829 0-211.84 172.203-384.171 383.915-384.171 211.797 0 384.128 172.331 384.128 384.171z" />
<glyph unicode="&#xe913;" glyph-name="error" d="M512 853.334c-235.264 0-426.667-191.403-426.667-426.667s191.403-426.667 426.667-426.667 426.667 191.403 426.667 426.667-191.403 426.667-426.667 426.667zM554.667 213.334h-84.864v85.333h84.864v-85.333zM554.667 341.334h-84.907l-0.427 298.667h85.333v-298.667z" />
<glyph unicode="&#xe914;" glyph-name="info" d="M469.333 512h85.333v-298.667h-85.333v298.667zM469.333 554.667h85.333v85.333h-85.333v-85.333zM938.667 426.667c0 235.264-191.403 426.667-426.667 426.667s-426.667-191.403-426.667-426.667 191.403-426.667 426.667-426.667 426.667 191.403 426.667 426.667zM896 426.667c0-211.712-172.288-384-384-384s-384 172.288-384 384 172.288 384 384 384 384-172.288 384-384z" />
<glyph unicode="&#xe915;" glyph-name="menu" d="M256 426.624c-1.845-69.28-58.446-124.737-128-124.737s-126.155 55.458-127.996 124.567c-0.004 70.863 57.304 128.17 127.996 128.17s128-57.308 128-128zM512.043 554.624c-70.704 0-128.021-57.317-128.021-128.021s57.317-128.021 128.021-128.021c70.704 0 128.021 57.317 128.021 128.021s-57.317 128.021-128.021 128.021zM896 554.624c-70.692 0-128-57.308-128-128s57.308-128 128-128c70.692 0 128 57.308 128 128s-57.308 128-128 128z" />
<glyph unicode="&#xe916;" glyph-name="warning" d="M512 853.334c0-13.312-426.667-853.333-426.667-853.333h853.333l-426.667 853.333zM554.667 128h-85.333v85.333h85.333v-85.333zM469.333 256v298.667h85.333v-298.667h-85.333z" />
<glyph unicode="&#xe917;" glyph-name="compare" d="M211.627 668.587l-122.112 150.571c-2.727 3.547-4.37 8.050-4.37 12.937 0 11.782 9.551 21.333 21.333 21.333 6.439 0 12.212-2.853 16.123-7.363l112.79-139.035 231.467 79.147c0.384 0.128 0.768 0.043 1.152 0.128 1.271 0.322 2.737 0.523 4.246 0.554 1.344 0.086 2.624 0.256 3.946 0.128s2.603-0.64 3.84-1.024c1.365-0.427 2.688-0.811 3.968-1.493 0.384-0.213 0.811-0.213 1.109-0.427l408.747-257.237c6.023-3.839 9.961-10.484 9.961-18.048 0-11.781-9.55-21.331-21.331-21.331-4.217 0-8.147 1.223-11.457 3.335l-400.042 251.767-235.904-80.683c-1.701-0.554-3.661-0.894-5.695-0.938-0.407 0-0.833-0.171-1.175-0.171h-0.043c-4.047 0.134-7.775 1.389-10.916 3.462-0.945 0.548-1.67 1.231-2.566 1.999-0.981 0.853-2.219 1.365-3.072 2.389zM712.107 687.702c6.787 0.003 12.839 3.151 16.778 8.064l61.942 78.976c2.833 3.588 4.545 8.175 4.545 13.163 0 11.782-9.552 21.334-21.334 21.334-6.795 0-12.848-3.177-16.755-8.126l-61.858-78.893c-2.871-3.596-4.607-8.209-4.607-13.227 0-11.758 9.532-21.29 21.29-21.291zM522.069 440.704c1.579 1.152 3.328 2.048 4.608 3.669l0.043 0.043h0.043v0.043l103.424 131.669c2.841 3.592 4.558 8.188 4.558 13.184 0 11.79-9.557 21.347-21.347 21.347-6.793 0-12.846-3.173-16.755-8.118l-90.36-115.117-146.731 114.219c-1.109 0.768-2.304 1.024-3.456 1.579-1.365 0.64-2.56 1.451-3.925 1.792-1.323 0.341-2.731 0.213-4.096 0.299-1.323 0.043-2.688 0.299-4.096 0.128-1.323-0.171-2.56-0.811-3.84-1.28-1.28-0.427-2.645-0.725-3.84-1.408s-2.133-1.835-3.2-2.773c-0.896-0.853-2.091-1.451-2.901-2.517-0.128-0.085-0.128-0.213-0.213-0.299l-0.256-0.256-178.645-246.699c-3.026-3.655-4.862-8.392-4.862-13.557 0-11.782 9.551-21.333 21.333-21.333 7.535 0 14.157 3.906 17.952 9.804l165.811 228.906 145.493-113.237c3.57-2.827 8.139-4.536 13.107-4.536 3.349 0 6.517 0.776 9.333 2.159 0.985 0.457 1.838 1.566 2.819 2.291zM938.667 255.915c-0.17-117.735-95.591-213.127-213.322-213.248-117.686 0-213.345 95.659-213.345 213.248 0.097 117.799 95.541 213.273 213.319 213.419 117.646 0 213.347-95.744 213.347-213.419zM895.659 255.915c0 93.867-76.416 170.24-170.325 170.24-94.017-0.073-170.222-76.233-170.368-170.226 2.604-92.098 77.874-165.755 170.347-165.755s167.743 73.656 170.341 165.501zM810.667 277.334h-64v64c0 11.782-9.551 21.333-21.333 21.333s-21.333-9.551-21.333-21.333v-64h-64c-11.782 0-21.333-9.551-21.333-21.333s9.551-21.333 21.333-21.333h64v-64c0-11.782 9.551-21.333 21.333-21.333s21.333 9.551 21.333 21.333v64h64c11.782 0 21.333 9.551 21.333 21.333s-9.551 21.333-21.333 21.333z" />
<glyph unicode="&#xe918;" glyph-name="contract" d="M511.915 851.115c-234.709 0-425.685-190.976-425.685-425.728 0-234.709 190.976-425.643 425.685-425.643 234.752 0 425.685 190.933 425.685 425.643 0 234.752-190.933 425.728-425.685 425.728zM511.915 42.411c-211.157 0-383.019 171.819-383.019 382.976 0 211.2 171.819 383.061 383.019 383.061s383.019-171.819 383.019-383.061c0-211.157-171.819-382.976-383.019-382.976zM752.768 405.334c0-11.782-9.551-21.333-21.333-21.333h-441.088c-11.782 0-21.333 9.551-21.333 21.333s9.551 21.333 21.333 21.333h441.088c11.782 0 21.333-9.551 21.333-21.333z" />
<glyph unicode="&#xe919;" glyph-name="expand" d="M512 853.206c-235.179 0-426.539-191.36-426.539-426.539s191.36-426.539 426.539-426.539 426.539 191.36 426.539 426.539-191.36 426.539-426.539 426.539zM512 42.795c-211.669 0-383.872 172.203-383.872 383.872s172.203 383.872 383.872 383.872 383.872-172.203 383.872-383.872-172.203-383.872-383.872-383.872zM753.28 405.334c0-11.782-9.551-21.333-21.333-21.333h-199.723v-199.68c0-11.782-9.551-21.333-21.333-21.333s-21.333 9.551-21.333 21.333v199.68h-199.68c-11.782 0-21.333 9.551-21.333 21.333s9.551 21.333 21.333 21.333h199.68v199.68c0 11.782 9.551 21.333 21.333 21.333s21.333-9.551 21.333-21.333v-199.68h199.723c11.782 0 21.333-9.551 21.333-21.333z" />
<glyph unicode="&#xe91a;" glyph-name="export" d="M938.667 187.563v-45.952c0-72.235-61.141-141.611-128-141.611h-554.667c-72.576 0-128 74.923-128 141.355v45.952c0 11.776 8.277 21.333 20.096 21.333s22.571-9.515 22.571-21.291v-45.952c0-46.208 39.253-98.731 85.333-98.731h554.667c44.117 0 85.333 49.579 85.333 98.944v45.952c0 11.776 9.003 21.333 20.779 21.333s21.888-9.557 21.888-21.333zM516.352 176.427c3.929-4.503 9.676-7.334 16.084-7.339h0.172c6.454 0.061 12.216 2.967 16.103 7.522l255.299 292.040c3.137 3.692 5.045 8.514 5.045 13.781 0 11.788-9.556 21.344-21.344 21.344-6.521 0-12.358-2.924-16.273-7.532l-216.772-247.54v572.416c0 11.776-10.453 21.333-22.272 21.333-11.776 0-20.395-9.557-20.395-21.333v-573.611l-218.453 250.923c-3.905 4.185-9.454 6.793-15.611 6.793-11.782 0-21.333-9.551-21.333-21.333 0-5.116 1.801-9.812 4.804-13.488l254.946-293.978z" />
<glyph unicode="&#xe91b;" glyph-name="factsheet" d="M932.352 36.651l-254.848 254.848c51.556 59.188 82.987 137.083 82.987 222.319 0 0.021 0 0.042 0 0.063 0 187.218-151.424 339.581-337.493 339.581-186.155 0-337.579-152.32-337.579-339.584s151.424-339.584 337.579-339.584c86.601 0.089 165.486 33.048 224.869 87.070l254.321-254.835c3.789-3.5 8.873-5.647 14.458-5.647 11.782 0 21.333 9.551 21.333 21.333 0 5.575-2.139 10.651-5.64 14.451zM422.997 216.918c-162.645 0-294.912 133.205-294.912 296.917s132.267 296.917 294.912 296.917c162.603 0 294.827-133.205 294.827-296.917 0-163.669-132.224-296.917-294.827-296.917zM602.411 639.872h-87.083c-11.776 0-17.835-9.557-17.835-21.333v-234.965h-26.837v319.445c0 11.782-9.551 21.333-21.333 21.333h-85.333c-11.782 0-21.333-9.551-21.333-21.333v-319.445l-19.328-0.256v149.035c0 11.782-9.551 21.333-21.333 21.333h-88.789c-11.782 0-21.333-9.551-21.333-21.333v-170.411c0-11.782 9.551-21.333 21.333-21.333h88.789l61.995 0.256h238.421c11.782 0 21.333 9.551 21.333 21.333v256.341c0 11.782-9.551 21.333-21.333 21.333zM280.661 383.318h-46.123v127.744h46.123v-127.744zM427.947 383.616h-42.667v298.069h42.667v-298.069zM581.077 383.616h-44.459v213.632h44.459v-213.632z" />
<glyph unicode="&#xe91c;" glyph-name="print" d="M853.333 213.334h-106.667c-11.782 0-21.333 9.551-21.333 21.333s9.551 21.333 21.333 21.333h106.667c27.136 0 42.667 15.531 42.667 42.667v213.333c0 27.136-15.531 42.667-42.667 42.667h-682.667c-27.136 0-42.667-15.531-42.667-42.667v-213.333c0-27.136 15.531-42.667 42.667-42.667h106.667c11.782 0 21.333-9.551 21.333-21.333s-9.551-21.333-21.333-21.333h-106.667c-50.261 0-85.333 35.072-85.333 85.333v213.333c0 50.261 35.072 85.333 85.333 85.333h682.667c50.261 0 85.333-35.072 85.333-85.333v-213.333c0-50.261-35.072-85.333-85.333-85.333zM768 21.334v341.333c0 11.782-9.551 21.333-21.333 21.333h-469.333c-11.782 0-21.333-9.551-21.333-21.333v-341.333c0-11.782 9.551-21.333 21.333-21.333h469.333c11.782 0 21.333 9.551 21.333 21.333zM298.667 341.334h426.667v-298.667h-426.667v298.667zM256.939 469.376c-0.024 23.546-19.118 42.624-42.667 42.624-23.564 0-42.667-19.103-42.667-42.667 0-0.015 0-0.030 0-0.045 0.024-23.543 19.118-42.622 42.667-42.622 23.564 0 42.667 19.103 42.667 42.667 0 0.015 0 0.030 0 0.045zM682.667 277.334c0 11.782-9.551 21.333-21.333 21.333h-298.667c-11.782 0-21.333-9.551-21.333-21.333s9.551-21.333 21.333-21.333h298.667c11.782 0 21.333 9.551 21.333 21.333zM682.667 192c0 11.782-9.551 21.333-21.333 21.333h-298.667c-11.782 0-21.333-9.551-21.333-21.333s9.551-21.333 21.333-21.333h298.667c11.782 0 21.333 9.551 21.333 21.333zM682.667 106.667c0 11.782-9.551 21.333-21.333 21.333h-298.667c-11.782 0-21.333-9.551-21.333-21.333s9.551-21.333 21.333-21.333h298.667c11.782 0 21.333 9.551 21.333 21.333zM768 704v-42.667c0-11.782-9.551-21.333-21.333-21.333s-21.333 9.551-21.333 21.333v21.333h-106.667c-11.782 0-21.333 9.551-21.333 21.333v106.667h-298.667v-149.333c0-11.782-9.551-21.333-21.333-21.333s-21.333 9.551-21.333 21.333v170.667c0 11.782 9.551 21.333 21.333 21.333h362.667c6.315 0 12.331-2.773 16.384-7.68l106.667-128c3.079-3.656 4.949-8.418 4.949-13.617 0-0.013 0-0.026 0-0.039zM640 725.334h61.141l-61.141 73.344v-73.344z" />
<glyph unicode="&#xe91d;" glyph-name="refresh" d="M215.040 397.355v87.339c0 7.936-3.925 27.307 77.696 27.307h346.283v-79.701c-0.001-0.063-0.001-0.137-0.001-0.211 0-11.735 9.513-21.248 21.248-21.248 6.302 0 11.964 2.744 15.855 7.102l171.197 188.949c3.436 3.779 5.539 8.822 5.539 14.357s-2.104 10.578-5.555 14.375l-171.163 191.855c-3.913 4.338-9.554 7.053-15.83 7.053-11.759 0-21.291-9.532-21.291-21.291 0-0.034 0-0.069 0-0.103v-87.931h-346.283c-110.848 0-164.907-94.037-164.907-190.336 0-83.2 46.763-147.499 48.725-150.144 4.096-5.547 10.539-12.117 17.152-12.117 0.011 0 0.023 0 0.036 0 2.368 0 4.644 0.39 6.769 1.11 8.641 2.815 14.529 14.42 14.529 23.636zM173.867 499.371c-2.112 10.657-3.338 22.924-3.371 35.472 0 52.294 22.443 147.696 122.24 147.696h367.616c11.782 0 21.333 9.551 21.333 21.333v54.059l121.003-136.661-121.003-133.76v45.099c0 11.782-9.551 21.333-21.333 21.333h-367.616c-34.347 0-107.307 0-118.869-54.571zM829.568 477.014c-3.906 4.188-9.456 6.799-15.616 6.799-11.772 0-21.317-9.535-21.333-21.304v-87.34c0-29.397 4.608-33.792-45.781-33.792h-362.923v86.229c0.001 0.063 0.001 0.137 0.001 0.211 0 11.735-9.513 21.248-21.248 21.248-6.302 0-11.964-2.744-15.855-7.102l-169.789-192.917c-3.436-3.779-5.539-8.822-5.539-14.357s2.104-10.578 5.555-14.375l169.926-186.948c3.92-4.259 9.522-6.917 15.744-6.917 11.777 0 21.33 9.525 21.376 21.292v80.26h362.923c113.024 0 148.523 96.725 148.523 192.555-0.043 84.523-63.275 153.557-65.963 156.459zM746.965 170.667h-384.256c-11.776 0-21.333-10.837-21.333-22.656v-45.141l-119.765 131.797 119.595 137.685v-54.101c0-11.776 9.557-19.627 21.333-19.627h384.256c78.208 0 88.448 25.771 88.448 76.459v16.171c9.728-20.523 17.579-45.056 17.579-70.784 0-46.677-5.973-149.803-105.856-149.803z" />
<glyph unicode="&#xe91e;" glyph-name="settings" d="M916.395 499.030h-89.685c-6.315 27.136-15.061 58.197-26.24 82.133l69.888 71.851c3.733 3.838 6.035 9.084 6.035 14.868 0 5.848-2.353 11.147-6.164 15.001l-99.454 100.521c-3.857 3.921-9.22 6.35-15.15 6.35-5.695 0-10.867-2.241-14.682-5.888l-73.336-69.539c-25.301 12.16-57.216 21.12-81.493 26.837v88.192c0 11.782-9.551 21.333-21.333 21.333h-105.472c-11.782 0-21.333-9.551-21.333-21.333v-88.235c-21.291-5.205-49.237-13.611-73.899-25.813l-67.584 69.163c-3.847 3.942-9.21 6.39-15.145 6.4-5.122 1.195-11.223-2.219-15.234-6.315l-98.56-99.456c-3.831-3.843-6.2-9.145-6.2-15.001 0-5.705 2.249-10.886 5.908-14.703l70.649-74.147c-9.259-19.755-17.877-46.933-25.984-82.219h-104.32c-11.782 0-21.333-9.551-21.333-21.333v-105.515c0-11.782 9.551-21.333 21.333-21.333h104.448c5.248-20.949 13.568-48.512 25.771-72.917l-69.12-67.2c-3.964-3.883-6.421-9.292-6.421-15.274 0-5.919 2.406-11.276 6.293-15.147l99.499-98.347c3.87-3.77 9.163-6.095 14.999-6.095 6.090 0 11.588 2.531 15.501 6.6l65.713 69.426c23.253-11.392 50.347-19.584 73.643-25.259v-106.027c0-11.782 9.551-21.333 21.333-21.333h105.472c11.782 0 21.333 9.551 21.333 21.333v105.941c26.752 6.272 57.429 15.019 81.237 26.283l71.424-69.845c8.405-8.192 21.717-8.107 29.909 0.085l100.437 99.456c3.891 3.879 6.299 9.243 6.299 15.171 0 6.053-2.511 11.52-6.548 15.415l-68.358 64.987c10.24 20.437 19.285 45.739 26.069 72.747h89.856c11.782 0 21.333 9.551 21.333 21.333v105.515c0 11.782-9.551 21.333-21.333 21.333zM895.061 393.515h-85.504c-10.221-0.006-18.76-7.199-20.838-16.798-7.62-36.237-19.652-69.602-33.092-91.661-1.965-3.167-3.13-7.010-3.13-11.125 0-6.078 2.542-11.562 6.62-15.448l64.35-61.15-69.888-69.205-67.584 66.048c-3.826 3.774-9.085 6.105-14.888 6.105-4.123 0-7.972-1.177-11.228-3.213-18.642-11.425-54.055-23.031-99.495-32.588-9.741-2.116-16.937-10.643-16.981-20.859v-101.765h-62.805v101.76c-0.006 10.221-7.199 18.76-16.798 20.838-39.309 8.26-72.162 19.652-92.557 32.154-3.168 1.966-7.011 3.131-11.126 3.131-6.099 0-11.6-2.559-15.488-6.663l-62.004-65.503-68.523 67.712 65.195 63.36c3.984 3.88 6.456 9.296 6.456 15.29 0 4.113-1.164 7.954-3.181 11.212-13.089 21.37-24.694 53.882-32.673 91.471-2.121 9.722-10.655 16.895-20.864 16.896h-100.096v62.848h100.096c10.221 0.006 18.76 7.199 20.838 16.798 10.308 48.695 21.146 82.487 32.239 100.578 1.989 3.174 3.169 7.031 3.169 11.164 0 5.683-2.231 10.845-5.865 14.658l-66.979 70.263 68.651 69.333 63.744-65.237c3.89-3.962 9.302-6.417 15.287-6.417 4.095 0 7.921 1.149 11.174 3.142 21.069 12.832 54.733 24.693 92.365 32.544 9.74 2.104 16.933 10.643 16.939 20.863v83.969h62.805v-83.925c0-10.112 7.083-18.816 16.981-20.864 43.179-9.003 80.384-21.376 99.584-33.109 8.149-5.12 18.859-3.925 25.771 2.688l69.376 65.792 70.059-70.827-66.133-67.968c-3.742-3.827-6.052-9.069-6.052-14.851 0-4.12 1.173-7.966 3.202-11.223 11.34-18.598 22.86-54.225 32.502-100.347 2.086-9.758 10.631-16.971 20.863-16.981h85.548v-62.891zM519.381 613.419c-99.029 0-179.584-80.555-179.584-179.584s80.555-179.584 179.584-179.584c98.987 0 179.541 80.555 179.541 179.584s-80.555 179.584-179.541 179.584zM519.381 296.96c-75.588 0.073-136.844 61.329-136.917 136.91 0.097 75.585 61.339 136.827 136.908 136.924 75.579-0.097 136.811-61.344 136.884-136.91 0-75.527-61.44-136.924-136.875-136.924z" />
<glyph unicode="&#xe91f;" glyph-name="account-add" d="M640 298.667v112.128c51.712 44.928 85.376 116.139 85.376 196.395 0 135.723-95.701 246.144-213.376 246.144-117.632 0-213.333-110.421-213.333-246.144 0-81.109 34.347-153.003 86.997-197.845h-1.664v-83.328l-156.373-71.253c-49.493-17.323-99.627-66.432-99.627-126.763v-85.333h426.667v42.667h-384v42.667c0 35.115 30.549 72.32 72.832 87.253l183.168 83.328v83.243c24.801-12.989 54.167-20.633 85.314-20.693 30.355 0 59.198 7.467 85.352 20.651v-83.115h42.667zM512 810.667c84.779 0 154.752-74.24 167.936-170.923l-1.237-0.128c-61.184-11.691-98.005 3.968-126.933 53.803l-19.285 33.067-18.005-33.835c-16.469-31.019-82.816-52.651-131.968-52.651-15.232 0-24.533 3.712-37.163 10.197 16.597 91.563 84.949 160.469 166.656 160.469zM512 403.798c-93.525 0-169.557 90.155-170.496 201.387 11.52-4.608 24.107-7.851 41.003-7.851 50.816 0 113.365 17.237 149.248 49.749 28.672-36.181 65.237-53.717 112.171-53.717 11.819 0 24.704 1.579 37.973 3.797-4.523-107.392-78.635-193.365-169.899-193.365zM832 298.667c-105.856 0-192-86.144-192-192s86.144-192 192-192 192 86.144 192 192-86.144 192-192 192zM832-42.666c-82.347 0-149.333 66.987-149.333 149.333s66.987 149.333 149.333 149.333 149.333-66.987 149.333-149.333-66.987-149.333-149.333-149.333zM938.667 106.667c0-11.782-9.551-21.333-21.333-21.333h-64v-64c0-11.782-9.551-21.333-21.333-21.333s-21.333 9.551-21.333 21.333v64h-64c-11.782 0-21.333 9.551-21.333 21.333s9.551 21.333 21.333 21.333h64v64c0 11.782 9.551 21.333 21.333 21.333s21.333-9.551 21.333-21.333v-64h64c11.782 0 21.333-9.551 21.333-21.333z" />
<glyph unicode="&#xe920;" glyph-name="buy" d="M682.667 678.23v-80.896h42.667c11.776 0 21.333-10.795 21.333-22.571 0-11.819-9.557-20.096-21.333-20.096h-42.667v-25.771c0-12.971-3.712-45.355-10.453-59.563h74.453c11.782 0 21.333-9.551 21.333-21.333s-9.551-21.333-21.333-21.333h-128c-11.782 0-21.333 9.551-21.333 21.333s9.551 21.333 21.333 21.333c6.827 0.896 21.333 42.027 21.333 59.563v25.771h-42.667c-11.776 0-21.333 8.277-21.333 20.096 0 11.776 9.557 22.571 21.333 22.571h42.667v80.896c0 35.285 28.715 64 64 64s64-28.715 64-64c0-11.782-9.551-21.333-21.333-21.333s-21.333 9.551-21.333 21.333c0 11.782-9.551 21.333-21.333 21.333s-21.333-9.551-21.333-21.333zM938.667 567.552c0-156.203-126.037-283.392-281.771-285.611-2.306-156.093-129.296-281.765-285.679-281.941-157.628 0-285.884 128.213-285.884 285.781 0 156.203 126.037 283.392 281.771 285.611 2.306 156.093 129.296 281.765 285.679 281.941 157.628 0 285.884-128.213 285.884-285.781zM613.205 284.8c-62.832 9.072-117.799 37.51-159.909 78.969-1.713-0.505-3.377-1.103-5.297-1.103-11.782 0-21.333 9.551-21.333 21.333s-9.551 21.333-21.333 21.333c-11.782 0-21.333-9.551-21.333-21.333v-85.333h42.667c11.782 0 21.333-9.551 21.333-21.333s-9.551-21.333-21.333-21.333h-41.515l-1.152-21.333c0-12.971-2.56-49.792-9.301-64h73.301c11.782 0 21.333-9.551 21.333-21.333s-9.551-21.333-21.333-21.333h-128c-11.782 0-21.333 9.551-21.333 21.333s9.551 21.333 21.333 21.333c6.827 0.896 21.333 46.464 21.333 64l1.152 21.333h-43.819c-11.782 0-21.333 9.551-21.333 21.333s9.551 21.333 21.333 21.333h42.667v85.333c0.080 31.483 22.879 57.617 52.864 62.878-11.157 23.638-19.789 51.003-24.087 79.783-133.055 0.827-240.959-107.631-240.959-240.922 0-133.717 108.587-242.475 242.005-242.475 133.163 0.043 241.493 108.288 242.048 241.536zM894.805 567.552c0 133.717-108.587 242.475-242.005 242.475-133.461 0-242.048-108.757-242.048-242.475s108.587-242.517 242.048-242.517c133.419 0 242.005 108.8 242.005 242.517z" />
<glyph unicode="&#xe921;" glyph-name="chart" d="M896 533.334c0 11.782-9.551 21.333-21.333 21.333h-128c-11.782 0-21.333-9.551-21.333-21.333v-490.667h-42.283l-1.024 277.333c0 11.782-9.551 21.333-21.333 21.333h-127.36c-11.782 0-21.333-9.551-21.333-21.333v-277.333h-42.667v320c0 11.782-9.551 21.333-21.333 21.333h-128c-11.782 0-21.333-9.551-21.333-21.333v-320h-42.667v149.333c0 0.028 0 0.061 0 0.093 0 11.902-9.481 21.59-21.303 21.922l-128.031 0.001c-11.776 0-21.333-10.197-21.333-22.016v-170.667c0-11.782 9.551-21.333 21.333-21.333h768c11.782 0 21.333 9.551 21.333 21.333v512zM213.333 41.344h-85.333v130.005h85.333v-130.005zM426.667 42.667h-85.333v298.667h85.333v-298.667zM640 42.667h-85.333v256h85.333v-256zM853.333 42.667h-85.333v469.333h85.333v-469.333zM176.171 389.888c30.933 0 56.064 25.216 56.064 56.192 0 5.76-1.664 11.008-3.285 16.213l130.517 108.8c7.765-4.139 16.299-7.040 25.685-7.040 16.896 0 31.573 7.893 41.856 19.755l111.872-37.248c2.176-29.013 25.728-52.139 55.296-52.139 31.019 0 56.192 25.173 56.192 56.149 0 9.131-2.688 17.408-6.571 25.045l142.251 166.059c5.027-1.938 10.84-3.182 16.906-3.452 30 1.467 53.671 26.052 53.671 56.166s-23.671 54.7-53.421 56.166c-31.065 0.005-56.195-25.168-56.195-56.102 0-9.131 2.688-17.451 6.571-25.045l-142.336-166.144c-5.041 1.959-10.872 3.205-16.96 3.453-17.003 0.003-31.638-7.847-41.963-19.709l-111.744 37.248c-2.018 29.092-26.022 51.952-55.405 52.139-30.995 0-56.168-25.173-56.168-56.107 0-5.76 1.664-11.008 3.285-16.256l-130.475-108.8c-7.395 4.234-16.215 6.818-25.62 7.039-31.090-0.011-56.236-25.164-56.236-56.191 0-31.034 25.158-56.192 56.192-56.192 0.008 0 0.015 0 0.023 0zM803.072 807.894c0.227 0.014 0.492 0.021 0.759 0.021 7.47 0 13.525-6.055 13.525-13.525s-6.055-13.525-13.525-13.525c-0.267 0-0.532 0.008-0.796 0.023-7.373 0.047-13.361 6.064-13.361 13.481 0 0.030 0 0.060 0 0.090 0 7.419 5.973 13.435 13.397 13.435zM594.176 564.054c7.467 0 13.525-6.059 13.525-13.44 0-0.013 0-0.028 0-0.043 0-7.446-6.036-13.483-13.483-13.483s-13.483 6.036-13.483 13.483c0 7.431 6.012 13.458 13.438 13.483zM385.152 633.728c0 0 0 0 0 0 7.446 0 13.483-6.036 13.483-13.483s-6.036-13.483-13.483-13.483c0 0 0 0 0 0-7.446 0-13.483 6.036-13.483 13.483s6.036 13.483 13.483 13.483zM176.171 459.563c7.424 0 13.397-6.059 13.397-13.483 0-7.446-6.036-13.482-13.483-13.482s-13.483 6.036-13.483 13.483c0 7.446 6.036 13.483 13.483 13.483 0.030 0 0.060 0 0.090 0z" />
<glyph unicode="&#xe922;" glyph-name="market" d="M533.333 383.104h-256.896c-11.782 0-21.333-9.551-21.333-21.333v-214.229c0-11.782 9.551-21.333 21.333-21.333h256.896c11.782 0 21.333 9.551 21.333 21.333v214.229c0 11.782-9.551 21.333-21.333 21.333zM512 168.875h-214.229v171.563h214.229v-171.563zM950.144 670.166l-68.48 170.667c-3.475 7.339-10.819 12.325-19.327 12.331h-682.198c-8.509-0.005-15.853-4.992-19.273-12.201l-68.493-170.796c-1.267-2.647-2.008-5.755-2.008-9.035 0-4.248 1.241-8.205 3.381-11.53 3.18-4.564 8.132-7.823 13.863-8.773l0.123-13.628c0-51.925 23.381-100.651 62.037-124.373v-481.323c0-11.782 9.551-21.333 21.333-21.333h684.373c11.782 0 21.333 9.551 21.333 21.333v497.237c0 1.152-0.469 2.133-0.683 3.243 23.339 24.96 37.632 61.568 37.632 105.045v13.568c6.258 0.737 11.598 4.136 14.929 9.016 2.173 3.325 3.438 7.309 3.438 11.588 0 3.254-0.731 6.336-2.038 9.093zM802.731 530.304c-15.061 0-20.651 11.904-33.493 25.643 0.171 1.109 0.683 2.091 0.683 3.243v80.853l121.259-0.171v-12.757c0-48.128-41.003-96.811-88.448-96.811zM341.547 640l170.453-0.171v-107.179c-22.059-26.752-63.147-41.771-94.293-41.771-37.333 0-53.717 30.677-76.16 69.931v79.189zM512 809.344v-128l-212.267 1.323 49.749 127.829 162.517-1.152zM691.029 810.496l22.229-127.829h-158.592v126.677l136.363 1.152zM554.667 639.83l172.587-0.512v-75.093c-0.555-0.768-1.408-1.195-1.877-2.048-22.571-41.173-66.56-71.339-103.979-71.339-29.653 0-45.013 14.251-66.731 39.296v109.696zM897.323 682.496h-140.459l-22.229 128h114.005l48.683-128zM193.749 810.496h112.128l-50.773-127.829h-109.995l48.64 127.829zM148.48 627.072v12.757h150.357v-79.573c-16.341-16.597-61.013-29.952-76.629-29.952-45.227 0-73.728 44.331-73.728 96.768zM639.147 42.88l0.853 297.557 130.005 0.213-2.005-297.984-128.853 0.213zM854.187 42.88h-41.728v319.787c0 11.776-13.995 20.437-25.813 20.437h-167.979c-11.782 0-21.333-9.551-21.333-21.333l-0.853-318.891h-384.043v445.952c3.285-0.299 6.357-1.195 9.813-1.195 23.253 0 74.24 13.525 95.573 31.573 31.104-41.131 54.016-70.997 99.883-70.997 37.589 0 73.728 15.36 102.144 42.88 28.459-27.819 63.787-42.88 101.589-42.88 45.312 0 89.557 24.576 120.533 65.664 15.104-14.208 34.091-26.197 60.8-26.197 12.587 0 40.363 2.688 51.456 6.656v-451.456zM747.648 194.048c0-22.613-17.237-41.045-38.4-41.045s-38.4 18.432-38.4 41.045c0 22.656 17.237 41.045 38.4 41.045s38.4-18.389 38.4-41.045z" />
<glyph unicode="&#xe923;" glyph-name="select" d="M935.424 521.472l-185.344 200.064c-0.165 0.094-0.305 0.207-0.425 0.34-0.33 0.383-0.71 0.708-1.133 0.971-0.31 0.296-0.632 0.55-0.979 0.766l-1.261 0.739c-0.499 0.223-0.891 0.422-1.273 0.638-0.095-0.028-0.255 0.018-0.398 0.091-0.28 0.135-0.613 0.226-0.965 0.252-0.052 0.043-0.052-0.17-0.094-0.213l-464.085 0.213c-0.043 0.043-0.128-1.067-0.171-1.067-0.085-0.043-0.256 0.256-0.384 0.213-0.427-0.128-0.811-0.171-1.28-0.341-0.384-0.213-0.853-0.341-1.237-0.597l-0.981-0.683-1.152-1.024c-0.128-0.128-0.213-0.213-0.427-0.299l-185.301-200.064c-2.235-2.435-3.605-5.696-3.605-9.276 0-3.625 1.404-6.922 3.697-9.377l423.374-461.304 423.424 462.933c4.821 5.291 4.821 11.776 0 17.024zM661.333 512l-149.333-420.651-149.035 420.651h-234.965l170.24 172.843 64.427-172.843 149.333 170.667 149.333-171.52 85.333 171.52 149.333-170.667h-234.667z" />
<glyph unicode="&#xe924;" glyph-name="sell" d="M877.141 276.438c-36.949 38.827-70.613 49.963-113.195 37.248l-134.059-46.763c-0.981-0.341-1.707-1.067-2.603-1.536-4.693 17.621-21.547 33.195-51.285 33.195h-57.301c-3.413 2.944-9.045 8.789-13.739 13.653-25.984 26.795-69.419 71.68-127.147 71.68h-79.147v21.333c0 11.782-9.551 21.333-21.333 21.333h-128c-11.782 0-21.333-9.551-21.333-21.333v-256c0-11.782 9.551-21.333 21.333-21.333h128c11.782 0 21.333 9.551 21.333 21.333v6.272c25.643-9.131 49.109-17.621 69.376-25.045 79.787-29.141 125.013-45.056 166.229-45.056 50.432 0 94.805 23.851 188.971 76.501 38.869 21.717 86.869 48.597 148.395 80.939 6.85 3.62 11.439 10.698 11.439 18.848 0 5.723-2.262 10.917-5.941 14.737zM256 170.582h-85.333v213.333h85.333v-213.333zM702.379 199.168c-157.269-87.979-157.269-87.979-319.701-28.629-24.192 8.832-52.053 18.987-84.011 30.251v140.459h79.104c39.68 0 73.856-35.328 96.512-58.709 16.043-16.597 25.771-26.624 39.595-26.624h-87.211c-11.782 0-21.333-9.551-21.333-21.333s9.551-21.333 21.333-21.333h149.333c21.717 0 36.181 8.619 44.629 19.925 5.547-6.613 14.677-9.557 23.253-6.528l133.163 46.464c16.213 4.864 30.037 5.077 47.445-6.912-49.109-26.197-88.917-48.469-122.112-67.029zM533.333 383.915c58.91 0 106.667 47.756 106.667 106.667s-47.756 106.667-106.667 106.667c-58.91 0-106.667-47.756-106.667-106.667s47.756-106.667 106.667-106.667zM533.333 554.582c35.285 0 64-28.715 64-64s-28.715-64-64-64-64 28.715-64 64 28.715 64 64 64zM512 467.67v45.824c0 10.923 9.557 19.755 21.333 19.755s21.333-8.832 21.333-19.755v-45.824c0-10.923-9.557-19.755-21.333-19.755s-21.333 8.832-21.333 19.755zM746.667 554.582c58.91 0 106.667 47.756 106.667 106.667s-47.756 106.667-106.667 106.667c-58.91 0-106.667-47.756-106.667-106.667s47.756-106.667 106.667-106.667zM746.667 725.248c35.285 0 64-28.715 64-64s-28.715-64-64-64-64 28.715-64 64 28.715 64 64 64zM725.333 638.336v45.824c0 10.923 9.557 19.755 21.333 19.755s21.333-8.832 21.333-19.755v-45.824c0-10.923-9.557-19.755-21.333-19.755s-21.333 8.832-21.333 19.755z" />
<glyph unicode="&#xe925;" glyph-name="factsheet-full" d="M595.712 745.728c0-11.776-9.557-20.395-21.333-20.395h-379.477c-11.776 0-21.333 7.595-21.333 19.371s9.515 23.296 21.333 23.296h379.477c11.819 0 21.333-10.453 21.333-22.272zM170.667 405.163v255.701c0 11.776 11.221 21.333 23.040 21.333h169.088c11.782 0 21.333-9.551 21.333-21.333v-255.701c0-11.782-9.551-21.333-21.333-21.333h-169.088c-11.819 0-23.040 9.557-23.040 21.333zM213.333 426.496h128.128v213.035h-128.128v-213.035zM573.696 639.531c11.782 0 21.333 9.551 21.333 21.333s-9.551 21.333-21.333 21.333h-93.781c-11.782 0-21.333-9.551-21.333-21.333s9.551-21.333 21.333-21.333h93.781zM427.733 577.622c0-11.776 9.557-22.955 21.333-22.955h124.629c11.776 0 21.333 11.179 21.333 22.955s-9.557 19.712-21.333 19.712h-124.629c-11.776 0-21.333-7.936-21.333-19.712zM449.067 469.163h124.629c11.782 0 21.333 9.551 21.333 21.333s-9.551 21.333-21.333 21.333h-124.629c-11.782 0-21.333-9.551-21.333-21.333s9.551-21.333 21.333-21.333zM449.067 383.83h124.629c11.782 0 21.333 9.551 21.333 21.333s-9.551 21.333-21.333 21.333h-124.629c-11.782 0-21.333-9.551-21.333-21.333s9.551-21.333 21.333-21.333zM574.379 341.334h-379.477c-11.776 0-21.333-12.16-21.333-23.936s9.557-18.731 21.333-18.731h379.477c11.776 0 21.333 6.912 21.333 18.731 0 11.776-9.515 23.936-21.333 23.936zM574.379 256.384h-379.477c-11.782 0-21.333-9.551-21.333-21.333s9.551-21.333 21.333-21.333h379.477c11.782 0 21.333 9.551 21.333 21.333s-9.551 21.333-21.333 21.333zM572.117 170.667h-378.411c-11.776 0-21.333-8.747-21.333-20.523 0-11.782 9.551-21.333 21.333-21.333h378.453c11.782 0 21.333 9.551 21.333 21.333-0.115 11.364-9.354 20.533-20.735 20.533-0.225 0-0.45-0.004-0.674-0.011zM938.667 745.216l-0.683-614.016c0-66.987-68.053-131.2-140.843-131.2-9.131 0-17.877-0.768-26.325 0-2.133-0.768-4.437 0-6.827 0h-584.96c-40.448 0-92.629 65.877-92.629 130.645v702.379c0 11.819 9.515 20.309 21.333 20.309h551.851c5.675 0 11.093-1.152 15.104-5.163 3.968-4.011 7.979-9.429 7.979-15.104v-22.4h61.227c11.733 0 24.021-8.619 24.107-20.352v-22.315h148.651c11.819 0 22.016-11.008 22.016-22.784zM681.984 41.984c-30.635 11.349-41.984 54.443-41.984 88.704v681.045l-512-0.043v-681.045c0-46.933 38.997-87.296 51.115-87.979l502.869-0.683zM896 725.334h-128v-42.667h65.92c11.776 0 19.413-12.501 19.413-24.277v-519.595c0-32.981-29.44-53.461-58.667-53.461-40.107 0-69.248 24.021-69.248 55.979l-0.085 602.325v24.363h-42.667v-85.333l-1.792-551.979c0-68.693 63.232-88.021 116.267-88.021 44.331 0 98.176 40.96 98.176 88.533l0.683 594.133zM768.085 141.355c0-6.101 10.667-13.355 26.581-13.355 8.533 0 17.92 4.864 17.92 10.795v501.205l-44.587-0.469 0.085-498.176z" />
<glyph unicode="&#xe926;" glyph-name="globe" d="M829.696 710.4c-1.611 2.856-3.762 5.225-6.333 7.038-49.913 53.539-112.984 94.070-184.097 116.472-3.874 1.077-4.685 1.375-5.581 1.503-36.41 11.328-78.275 17.874-121.662 17.92-235.288 0-426.69-191.403-426.69-426.667s191.403-426.667 426.667-426.667 426.667 191.403 426.667 426.667c-0.046 109.29-41.403 208.912-109.301 284.105zM788.053 692.95c-6.016-22.528-24.405-77.013-67.797-102.741-63.915 11.563-123.947-22.571-137.685-39.339-9.728-11.776-6.315-22.528-4.352-26.581 2.645-5.589 8.96-10.197 15.445-12.203 5.675-7.424 15.189-32.427 20.949-55.296 0.987-3.896 2.939-7.246 5.59-9.899 16.768-16.768 39.765-15.616 56.277-11.648-2.432-19.499-32.171-50.475-49.707-68.651-19.627-20.395-30.421-31.659-30.421-45.653 0-16.299 11.904-26.667 19.84-33.536l4.352-3.925-0.341-0.299c-22.229-22.187-44.416-30.080-44.544-30.123-8.551-2.924-14.59-10.89-14.592-20.266 0-19.499-4.864-33.835-14.933-43.734-17.664-17.493-48.299-18.005-64.896-18.432-11.605 9.003-34.859 50.56-36.139 62.165 0 3.797 3.499 10.752 6.571 16.896 5.163 10.368 11.051 22.144 11.051 35.968 0 20.267-20.139 45.44-35.499 61.781-1.365 22.059-7.936 38.443-20.053 49.835-21.035 19.925-51.627 18.133-80.981 16.469-8.405-0.512-17.067-0.981-25.771-0.981-30.848 0-31.573 47.275-31.573 49.195 0 1.024 0.811 105.941 70.955 120.064 12.052 2.713 25.97 4.38 40.237 4.606 16.765 0.002 22.141-3.198 22.355-1.833 0.26-5.729 2.655-10.854 6.402-14.636 32.894-32.937 83.924-21.118 121.172-12.457 13.696 3.2 26.709 6.229 34.901 6.229 10.727 0.002 19.604 7.921 21.106 18.231 9.912 69.619 5.006 112.030-14.621 126.195-9.685 6.955-21.888 7.68-33.664 1.749-11.605-5.803-22.272-6.912-29.184-3.115-7.467 4.181-9.856 13.824-10.496 21.205-1.707 18.048 61.397 48.469 131.285 64 62.566-20.596 115.895-54.73 158.647-99.122zM512 42.667c-211.755 0-384 172.245-384 384s172.245 384 384 384c9.088 0 17.963-0.768 26.88-1.365-44.757-18.261-86.997-45.909-83.371-84.992 2.304-24.875 13.739-44.245 32.256-54.571 16.811-9.344 37.803-9.984 58.923-2.176 2.048-13.141 1.707-37.547-0.896-62.848-8.064-1.365-16.64-3.371-25.472-5.419-28.203-6.571-59.947-14.037-77.44-2.133-2.84 7.050-7.262 12.953-12.848 17.473-19.067 15.636-51.195 18.666-98.512 9.194-104.021-20.864-105.259-156.117-105.259-161.877 0-31.787 15.488-91.861 74.24-91.861 9.515 0 18.944 0.555 28.16 1.024 20.523 1.152 41.643 2.389 49.28-4.821 5.717-5.419 6.912-18.091 6.912-27.733 0-5.675 2.261-11.093 6.272-15.061 13.696-13.696 27.819-32.555 29.013-37.803 0-3.755-3.499-10.709-6.528-16.896-5.205-10.368-11.093-22.144-11.093-36.011 0-21.547 39.253-104.789 77.653-104.789l4.352-0.043c19.072 0 62.592 1.877 91.691 30.763 15.403 15.275 24.448 35.371 26.88 59.861 11.861 5.973 29.696 16.768 47.317 34.432 10.112 10.112 15.061 20.907 14.677 32.085-0.597 16.853-12.8 27.477-20.864 34.517-0.609 0.503-1.137 0.963-1.653 1.436 4.213 4.708 10.143 10.937 15.007 15.972 34.091 35.413 91.051 94.72 45.739 140.032-3.889 3.84-9.235 6.211-15.135 6.211-3.419 0-6.652-0.796-9.524-2.214-7.724-3.784-18.647-6.301-24.791-5.405-7.723 28.544-15.744 46.677-23.296 58.155 19.072 9.984 53.077 21.931 87.765 13.184 1.539-0.39 3.306-0.613 5.125-0.613 3.494 0 6.796 0.825 9.72 2.292 47.917 24.007 73.816 71.41 87.128 106.012 47.233-62.797 75.655-142.081 75.691-228.002 0-211.763-172.245-384.008-384-384.008z" />
<glyph unicode="&#xe927;" glyph-name="report" d="M384 149.334v170.667c0 11.776 9.557 22.016 21.333 22.016h42.667c11.776 0 21.333-10.197 21.333-22.016v-149.333h42.667v234.667c0 11.782 9.551 21.333 21.333 21.333h41.984c11.819 0 22.016-9.557 22.016-21.333v-234.667h42.667v320c0 11.782 9.551 21.333 21.333 21.333h42.667c11.782 0 21.333-9.551 21.333-21.333v-341.333c0-11.782-9.551-21.333-21.333-21.333h-298.667c-11.782 0-21.333 9.551-21.333 21.333zM533.333 683.648h171.989c11.782 0 21.333 9.551 21.333 21.333s-9.551 21.333-21.333 21.333h-171.989c-11.782 0-21.333-9.551-21.333-21.333s9.551-21.333 21.333-21.333zM853.333 832v-810.667c0-11.782-9.551-21.333-21.333-21.333h-597.333c-37.675 0-64 26.325-64 64v725.333c0 37.675 26.325 64 64 64h597.333c11.782 0 21.333-9.551 21.333-21.333zM298.667 810.667h-64c-14.165 0-21.333-7.168-21.333-21.333v-725.333c0-14.165 7.168-21.333 21.333-21.333h64v768zM810.667 810.667h-469.333v-768h469.333v768z" />
<glyph unicode="&#xe928;" glyph-name="computer" d="M864.555 768h-705.024c-40.917 0-74.197-31.232-74.197-69.675v-500.651c0-38.443 33.28-69.675 74.197-69.675h256.725l-31.659-42.667h-107.264c-11.782 0-21.333-9.551-21.333-21.333s9.551-21.333 21.333-21.333h469.333c11.782 0 21.333 9.551 21.333 21.333s-9.551 21.333-21.333 21.333h-105.6l-32.981 42.667h256.427c40.917 0 74.155 31.232 74.155 69.675v500.651c0 38.443-33.237 69.675-74.112 69.675zM437.76 85.334l31.659 42.667h84.779l32.981-42.667h-149.419zM896 197.675c0-14.891-14.123-27.008-31.445-27.008h-705.024c-17.365 0-31.531 12.117-31.531 27.008v500.651c0 14.891 14.165 27.008 31.531 27.008h704.981c17.365 0 31.488-12.117 31.488-27.008v-500.651zM170.667 254.592h682.667v428.075h-682.667v-428.075zM213.333 640h597.333v-342.741h-597.333v342.741zM512 245.334c-0.342 0.013-0.743 0.021-1.147 0.021-17.673 0-32-14.327-32-32s14.327-32 32-32c0.418 0 0.835 0.008 1.249 0.024 17.094 0.656 30.751 14.721 30.751 31.976 0 17.27-13.681 31.344-30.796 31.978zM501.333 213.291c0 5.891 4.776 10.667 10.667 10.667s10.667-4.776 10.667-10.667c0-11.733-21.333-11.733-21.333 0z" />
<glyph unicode="&#xe929;" glyph-name="tick" d="M426.667 213.334l-149.333 149.333 42.667 42.667 106.667-106.667 320 320 42.667-42.667-362.667-362.667z" />
<glyph unicode="&#xe930;" glyph-name="hand" d="M776.021 661.718c-12.757 0-41.557-3.371-52.224-8.832v44.032c0 43.093-41.515 69.76-84.48 69.76-12.757 0-42.667-0.427-42.667-0.427v6.229c0 43.051-41.643 82.219-84.651 82.219s-85.291-39.168-85.291-82.219v-6.187s-29.312 2.432-42.027 2.432c-43.093 0-85.973-25.045-85.973-68.139v-319.872l-64.939 75.605c-14.208 14.848-66.176 20.949-90.624-3.499-23.083-22.997-12.501-73.472-9.131-82.688 3.285-6.955 82.005-171.093 146.944-273.365 38.912-61.184 105.387-96.768 177.664-96.768h139.691c116.053 0 255.019 89.813 255.019 205.824v377.771c0 43.093-34.261 78.123-77.312 78.123zM811.221 356.95v-151.125c0-92.331-105.899-163.157-198.229-163.157h-139.691c-57.6 0-125.099 28.416-156.075 77.184-63.488 100.053-143.616 267.179-146.304 271.915-2.74 3.85-4.38 8.648-4.38 13.83 0 6.607 2.668 12.591 6.984 16.934 8.831 8.745 23.124 9.257 30.121 3.54l138.368-170.069-0.384 444.544c0 19.371 23.637 24.789 43.051 24.789s42.027-9.045 42.027-28.416v-227.584h42.624l0.299 76.459v226.645c0 19.456 22.912 38.229 42.368 38.229 19.413 0 42.667-18.773 42.667-38.187v-303.147h41.984v227.584c0 19.371 24.533 27.733 43.989 27.733 19.413 0 42.027-8.363 42.027-27.733v-312.917h42.667v199.595c0 19.371 23.211 37.76 42.667 37.76 19.413 0 43.221-18.389 43.221-37.76v-226.645z" />
<glyph unicode="&#xe931;" glyph-name="movie" d="M85.333 113.28c0-38.613 31.829-70.613 71.125-70.613h711.040c0.026 0 0.057 0 0.088 0 39.127 0 70.888 31.537 71.25 70.579l0.214 441.421h-853.717v-441.387zM128 512h768.384l-0.171-398.72c-0.358-15.51-13.017-27.947-28.58-27.947-0.033 0-0.065 0-0.098 0h-711.078c-0.040 0-0.087 0-0.134 0-15.554 0-28.203 12.441-28.537 27.916l0.213 398.751zM397.141 131.67c3.358-2.098 7.437-3.342 11.807-3.342 3.692 0 7.176 0.888 10.251 2.462l294.444 147.184c7.441 3.817 12.444 11.436 12.444 20.224s-5.003 16.407-12.317 20.165l-294.698 147.345c-2.945 1.48-6.417 2.347-10.092 2.347-4.393 0-8.496-1.238-11.98-3.385-6.515-4.125-13-11.421-13-19.229v-294.528c0-7.808 6.485-15.061 13.141-19.243zM426.667 411.99l226.432-113.835-226.432-113.493v227.328zM882.901 810.667h-741.419c-30.976 0-56.149-25.045-56.149-55.979v-157.355h853.717v157.227c0 30.933-25.216 56.107-56.149 56.107zM896.384 754.56v-63.787l-53.504-51.456-94.293 0.043 130.645 128.64h3.712c7.381 0 13.44-6.059 13.44-13.44zM567.765 768.043h94.763l-130.603-128.683-94.763 0.043 130.603 128.64zM376.32 639.403h-94.379l130.645 128.683h94.379l-130.645-128.683zM723.285 768.043l95.147-0.043-130.645-128.64h-95.104l130.603 128.683zM141.483 768.128h54.571l-68.053-64.939v51.499c0 7.381 6.059 13.44 13.483 13.44zM128 644.139l129.835 123.947h93.952l-130.603-128.64h-93.184v4.693z" />
<glyph unicode="&#xe932;" glyph-name="down-sort" d="M682.667 554.667l-170.667-256-170.667 256h341.333z" />
<glyph unicode="&#xe933;" glyph-name="up-sort" d="M341.333 298.667l170.667 256 170.667-256h-341.333z" />
<glyph unicode="&#xe934;" glyph-name="chevron-down-s" d="M798.123 524.416l-257.109-256c-7.712-7.668-18.343-12.407-30.080-12.407-11.822 0-22.522 4.808-30.249 12.576l-254.892 256.002c-7.673 7.71-12.416 18.341-12.416 30.080 0 23.552 19.093 42.645 42.645 42.645 11.813 0 22.505-4.803 30.228-12.564l224.77-225.751 226.901 225.92c7.715 7.678 18.354 12.425 30.101 12.425 23.569 0 42.675-19.106 42.675-42.675 0-11.822-4.807-22.521-12.572-30.249z" />
<glyph unicode="&#xe935;" glyph-name="chevron-up-s" d="M798.208 268.587c-7.71-7.811-18.415-12.649-30.25-12.649-11.751 0-22.387 4.769-30.080 12.478l-226.902 225.921-224.768-225.749c-7.71-7.811-18.415-12.649-30.25-12.649-11.751 0-22.387 4.769-30.080 12.478-7.757 7.728-12.557 18.418-12.557 30.23 0 11.748 4.748 22.387 12.43 30.103l254.889 255.998c7.729 7.769 18.428 12.578 30.251 12.578 11.737 0 22.368-4.74 30.082-12.409l257.107-255.998c7.767-7.722 12.574-18.414 12.574-30.229 0-11.751-4.755-22.392-12.447-30.102z" />
<glyph unicode="&#xe936;" glyph-name="chevron-down-m" d="M1011.541 609.878l-467.328-469.333c-7.722-7.767-18.414-12.574-30.229-12.574-11.751 0-22.392 4.755-30.102 12.447l-471.338 469.332c-7.066 7.598-11.402 17.818-11.402 29.051 0 23.588 19.122 42.709 42.709 42.709 11.158 0 21.317-4.279 28.925-11.286l441.058-439.226 437.248 439.125c7.728 7.755 18.418 12.553 30.229 12.553 23.569 0 42.675-19.106 42.675-42.675 0-11.758-4.755-22.405-12.447-30.124z" />
<glyph unicode="&#xe937;" glyph-name="chevron-up-m" d="M1011.456 140.416c-7.716-7.693-18.364-12.45-30.123-12.45-11.822 0-22.521 4.808-30.249 12.576l-437.207 439.127-441.088-439.253c-7.719-7.687-18.366-12.44-30.123-12.44-23.577 0-42.69 19.113-42.69 42.69 0 11.82 4.804 22.519 12.566 30.249l471.34 469.335c7.728 7.65 18.363 12.376 30.101 12.376 11.802 0 22.488-4.778 30.23-12.504l467.327-469.333c16.64-16.683 16.597-43.733-0.085-60.373z" />
<glyph unicode="&#xe938;" glyph-name="menu-burger" d="M853.333 640.598h-682.667c-23.564 0-42.667 19.103-42.667 42.667s19.103 42.667 42.667 42.667h682.667c23.564 0 42.667-19.103 42.667-42.667s-19.103-42.667-42.667-42.667zM853.333 384.598c23.564 0 42.667 19.103 42.667 42.667s-19.103 42.667-42.667 42.667h-682.667c-23.564 0-42.667-19.103-42.667-42.667s19.103-42.667 42.667-42.667h682.667zM853.333 128.598c23.564 0 42.667 19.103 42.667 42.667s-19.103 42.667-42.667 42.667h-682.667c-23.564 0-42.667-19.103-42.667-42.667s19.103-42.667 42.667-42.667h682.667z" />
<glyph unicode="&#xe939;" glyph-name="no-entry" d="M512 853.334c-235.264 0-426.667-191.36-426.667-426.667s191.403-426.667 426.667-426.667 426.667 191.36 426.667 426.667-191.403 426.667-426.667 426.667zM896 426.667c0-97.877-37.12-187.051-97.664-254.976l-541.269 541.355c67.293 60.547 156.784 97.59 254.927 97.621 211.761 0 384.007-172.288 384.007-384zM128 426.667c0 98.517 37.632 188.203 98.816 256.256l541.397-541.397c-67.45-61.289-157.445-98.824-256.206-98.859-211.762 0-384.007 172.288-384.007 384z" />
<glyph unicode="&#xe940;" glyph-name="square" d="M768 170.667h-512v512h512v-512z" />
<glyph unicode="&#xe941;" glyph-name="line" d="M768 384h-512v85.333h512v-85.333z" />
<glyph unicode="&#xe942;" glyph-name="droplet-line" d="M512-0c-183.936 0-307.499 123.563-307.499 307.499 0 196.437 279.851 514.475 291.755 527.915l15.744 17.749 15.744-17.749c11.904-13.483 291.755-331.477 291.755-527.915 0-183.936-123.605-307.499-307.499-307.499zM512 789.035c-59.307-70.4-265.387-326.229-265.387-481.536 0-161.195 104.149-265.387 265.387-265.387 161.195 0 265.387 104.149 265.387 265.387 0 155.349-206.080 411.179-265.387 481.536z" />
<glyph unicode="&#xe943;" glyph-name="droplet-fill" d="M512-0c-183.936 0-307.499 123.563-307.499 307.499 0 196.437 279.851 514.475 291.755 527.915l15.744 17.749 15.744-17.749c11.904-13.483 291.755-331.477 291.755-527.915 0-183.936-123.605-307.499-307.499-307.499z" />
<glyph unicode="&#xe944;" glyph-name="droplet-alt-line" d="M512 853.163c183.893 0 307.499-123.605 307.499-307.499 0-196.437-279.851-514.475-291.755-527.915l-15.744-17.749-15.744 17.749c-11.904 13.44-291.755 331.477-291.755 527.915 0 183.936 123.563 307.499 307.499 307.499zM512 64.128c59.307 70.4 265.387 326.229 265.387 481.536 0 161.195-104.149 265.387-265.387 265.387s-265.387-104.149-265.387-265.387c0-155.349 206.080-411.136 265.387-481.536z" />
<glyph unicode="&#xe945;" glyph-name="droplet-alt-fill" d="M512 853.632c183.936 0 307.499-123.563 307.499-307.499 0-196.437-279.851-514.475-291.755-527.915l-15.744-17.749-15.744 17.749c-11.947 13.44-291.755 331.477-291.755 527.915-0.043 183.893 123.563 307.499 307.499 307.499z" />
<glyph unicode="&#xe946;" glyph-name="circle-right" d="M811.904 426.966c0-5.149-2.087-9.81-5.461-13.184l-80.64-80.64c-3.349-3.377-7.99-5.468-13.12-5.468s-9.771 2.091-13.119 5.467c-3.366 3.348-5.448 7.981-5.448 13.1s2.082 9.752 5.446 13.098l47.745 47.745h-516.651c-10.792 0-19.541 8.749-19.541 19.541s8.749 19.541 19.541 19.541h516.949l-48 47.701c-3.39 3.351-5.489 8.001-5.489 13.141 0 5.098 2.065 9.714 5.404 13.056 3.367 3.372 8.021 5.457 13.163 5.457 5.099 0 9.719-2.051 13.079-5.374l80.638-80.169c3.499-3.413 5.504-8.149 5.504-13.013zM938.667 426.667c0-235.264-191.403-426.667-426.667-426.667s-426.667 191.403-426.667 426.667c0 235.307 191.403 426.667 426.667 426.667s426.667-191.36 426.667-426.667zM901.547 426.667c0 214.827-174.763 389.589-389.547 389.589s-389.547-174.763-389.547-389.589 174.763-389.589 389.547-389.589c214.784 0 389.547 174.763 389.547 389.589z" />
<glyph unicode="&#xe947;" glyph-name="circle-wave" d="M512 853.334c-235.264 0-426.667-191.403-426.667-426.667s191.403-426.667 426.667-426.667 426.667 191.403 426.667 426.667-191.403 426.667-426.667 426.667zM512 37.078c-214.784 0-389.547 174.763-389.547 389.589s174.763 389.589 389.547 389.589c214.784 0 389.547-174.763 389.547-389.589s-174.763-389.589-389.547-389.589zM782.123 292.139c-3.399-3.407-8.099-5.515-13.291-5.515s-9.892 2.108-13.29 5.514l-50.816 50.816v-74.581c-0.073-64.787-52.586-117.285-117.371-117.333-64.795 0.049-117.308 52.546-117.381 117.326v301.49c0 46.507-37.845 84.309-84.352 84.309s-84.352-37.845-84.352-84.309v-99.712c0-9.119-7.393-16.512-16.512-16.512s-16.512 7.393-16.512 16.512v100.821h0.128c0.64 64.213 52.907 116.224 117.248 116.224s116.608-52.011 117.291-116.224h0.085v-302.592c0.073-46.557 37.795-84.279 84.345-84.352 46.582 0.048 84.329 37.78 84.402 84.345v76.978l-52.949-52.949c-3.403-3.398-8.101-5.499-13.291-5.499-10.389 0-18.811 8.422-18.811 18.811 0 5.2 2.11 9.907 5.52 13.312l81.536 81.536c3.455 3.3 8.146 5.331 13.312 5.331s9.857-2.031 13.319-5.338l81.785-81.785c3.407-3.399 5.515-8.099 5.515-13.291 0-5.213-2.125-9.93-5.556-13.332z" />
<glyph unicode="&#xe948;" glyph-name="circle-zig" d="M512 853.334c-235.264 0-426.667-191.403-426.667-426.667s191.403-426.667 426.667-426.667 426.667 191.403 426.667 426.667-191.403 426.667-426.667 426.667zM512 37.078c-214.827 0-389.589 174.763-389.589 389.589s174.763 389.589 389.589 389.589 389.589-174.763 389.589-389.589-174.763-389.589-389.589-389.589zM810.667 533.334v-128c0-11.782-9.551-21.333-21.333-21.333s-21.333 9.551-21.333 21.333v81.152l-112.64-117.248c-3.892-4.026-9.342-6.526-15.376-6.526-4.414 0-8.516 1.338-11.922 3.631l-107.785 71.888-117.205-234.368c-3.533-7.082-10.726-11.861-19.036-11.861-0.013 0-0.026 0-0.038 0h-0.638c-8.491 0.279-15.707 5.459-18.933 12.791l-128.054 298.804c-0.849 2.214-1.341 4.775-1.341 7.451 0 11.806 9.57 21.376 21.376 21.376 8.399 0 15.667-4.844 19.162-11.892l109.923-256.551 107.435 214.869c3.624 7.023 10.828 11.741 19.134 11.741 4.375 0 8.443-1.309 11.836-3.556l113.072-75.385 96.384 100.352h-72.021c-11.782 0-21.333 9.551-21.333 21.333s9.551 21.333 21.333 21.333h128c11.782 0 21.333-9.551 21.333-21.333z" />
<glyph unicode="&#xe949;" glyph-name="saving" d="M574.208 728.576c0 9.813 7.936 17.749 17.792 17.749h26.667v26.624c-0.014 0.26-0.021 0.565-0.021 0.871 0 9.826 7.966 17.792 17.792 17.792s17.792-7.966 17.792-17.792c0-0.306-0.008-0.611-0.023-0.913l0.002-26.582h26.667c0.368 0.027 0.798 0.043 1.231 0.043 9.826 0 17.792-7.966 17.792-17.792s-7.966-17.792-17.792-17.792c-0.433 0-0.863 0.015-1.289 0.046l-26.61-0.003v-26.667c0-9.814-7.956-17.771-17.771-17.771s-17.771 7.956-17.771 17.771v26.667h-26.667c-0.013 0-0.028 0-0.043 0-9.803 0-17.749 7.947-17.749 17.749 0 0 0 0 0 0zM493.056 568.064c-9.299-0.671-16.589-8.38-16.589-17.791 0-0.391 0.013-0.778 0.037-1.163 0.935-9.284 8.752-16.512 18.257-16.512 0.211 0 0.42 0.004 0.629 0.011 5.133 0.383 11.155 0.602 17.228 0.602 56.099 0 107.836-18.68 149.329-50.159 2.32-1.769 6.028-3.101 10.047-3.101 5.789 0 10.932 2.765 14.181 7.045 2.266 2.971 3.611 6.68 3.611 10.704 0 5.783-2.779 10.917-7.075 14.139-46.927 35.517-106.217 56.872-170.494 56.872-6.742 0-13.43-0.235-20.055-0.697zM334.208 462.166c-0.024-19.611-15.927-35.499-35.541-35.499-19.629 0-35.541 15.912-35.541 35.541 0 0.015 0 0.030 0 0.045 0.024 19.608 15.927 35.496 35.541 35.496 19.629 0 35.541-15.912 35.541-35.541 0-0.015 0-0.030 0-0.045zM316.459 462.166v0zM938.667 462.166c-0.098-43.072-30.82-78.94-71.542-86.99-7.050-104.754-76.426-195.336-177.332-245.085v-111.872c0-9.826-7.966-17.792-17.792-17.792s-17.792 7.966-17.792 17.792v96.427c-42.042-16.077-90.67-25.387-141.471-25.387-0.259 0-0.518 0-0.777 0.001 0.019 0-0.007 0-0.033 0-51.034 0-99.889 9.325-144.956 26.365l2.821-97.405c0-9.826-7.966-17.792-17.792-17.792s-17.792 7.966-17.792 17.792v112.043c-63.061 30.976-114.859 83.285-146.133 136.576h-84.949c-0.025 0-0.055 0-0.085 0-9.779 0-17.707 7.928-17.707 17.707 0 0.015 0 0.030 0 0.045v142.078c0 9.856 7.936 17.749 17.792 17.749h58.88c15.531 71.040 63.232 139.989 133.376 185.856-7.459 28.396-25.499 51.68-49.547 65.86-5.892 3.367-9.464 9.089-9.464 15.646 0 6.539 3.553 12.249 8.835 15.302 20.495 12.060 45.040 19.169 71.244 19.203 46.687 0 90.292-23.083 116.703-61.099 30.976 7.381 81.963 7.723 84.096 7.595-3.354 10.738-5.287 23.085-5.287 35.883 0 68.713 55.703 124.416 124.416 124.416s124.416-55.703 124.416-124.416c0-36.267-15.518-68.911-40.276-91.652 81.104-51.41 138.534-134.567 145.83-225.234 21.291 6.997 36.779 26.837 36.779 50.389 0.477 9.444 8.251 16.921 17.771 16.921s17.293-7.477 17.769-16.879zM547.541 728.576c1.865-47.658 40.951-85.586 88.896-85.586s87.031 37.928 88.891 85.417c-1.86 47.827-40.946 85.755-88.891 85.755s-87.031-37.928-88.891-85.417zM832 391.168c0 91.563-61.269 175.189-146.304 223.275-14.517-6.427-31.449-10.169-49.255-10.169-41.762 0-78.717 20.583-101.273 52.159-6.731 0.732-14.728 0.994-22.764 1.099-27.669 0.004-55.658-3.196-83.733-9.511-1.215-0.299-2.609-0.47-4.043-0.47-6.566 0-12.293 3.591-15.325 8.917-23.427 41.431-73.902 62.807-119.512 50.86 23.211-21.845 38.4-50.859 43.008-83.115 0.109-0.74 0.171-1.594 0.171-2.463 0-6.427-3.4-12.060-8.499-15.199-71.843-43.479-119.245-109.996-130.040-182.487-1.313-8.636-8.68-15.178-17.577-15.189h-55.98v-106.581h78.123c6.827 0 13.099-3.925 16-10.027 49.024-101.717 165.589-167.509 297.003-167.509 176.469 0 320 119.509 320 266.411z" />
<glyph unicode="&#xe950;" glyph-name="home" d="M832 21.334h-248.875v246.699h-142.251v-246.699h-248.875v370.091c0 9.728 7.936 17.621 17.792 17.621 9.813 0 17.749-7.893 17.749-17.621v-334.848h177.792v246.699h213.333v-246.699h177.792v317.184c0 9.771 7.936 17.621 17.749 17.621s17.792-7.893 17.792-17.621v-352.427zM933.461 396.587c3.219 3.174 5.213 7.584 5.213 12.459s-1.994 9.284-5.211 12.457l-408.877 405.335c-3.234 3.193-7.68 5.165-12.587 5.165s-9.352-1.972-12.589-5.166l-408.873-405.331c-3.219-3.174-5.213-7.584-5.213-12.459s1.994-9.284 5.211-12.457c3.234-3.182 7.671-5.145 12.567-5.145s9.333 1.963 12.568 5.146l396.328 392.872 396.331-392.875c3.218-3.21 7.66-5.196 12.565-5.196s9.347 1.985 12.566 5.196zM796.459 655.744v141.013h-142.251c-0.367 0.027-0.795 0.043-1.227 0.043-9.756 0-17.664-7.908-17.664-17.664s7.908-17.664 17.664-17.664c0.432 0 0.86 0.015 1.284 0.046l106.61-0.003v-105.771c0-9.685 7.936-17.579 17.792-17.579 9.813 0 17.792 7.893 17.792 17.579z" />
<glyph unicode="&#xe951;" glyph-name="quantitative" d="M773.248 173.483c35.562-25.679 76.376-47.506 120-63.51l-53.27-109.972c-26.206 8.041-48.818 17.776-70.102 29.608-2.986 1.538-37.247 24.066-100.778 66.776-50.048-21.888-105.387-32.853-166.187-32.853-117.333 0-209.28 34.645-275.84 103.723-66.56 69.12-99.797 166.187-99.797 291.2 0 124.757 33.365 221.653 100.053 290.944 66.645 69.291 157.184 103.936 271.403 103.936 113.195 0 203.051-34.645 269.312-103.936 66.304-69.291 99.499-166.229 99.499-290.944 0-65.92-9.259-123.989-27.563-173.995-13.995-38.187-36.096-75.179-66.731-110.976zM649.259 260.523c19.84 23.296 34.688 51.413 44.587 84.352 9.899 33.067 14.848 70.869 14.848 113.579 0 88.277-19.413 154.197-58.325 197.717-38.955 43.648-89.771 65.365-152.661 65.365s-113.877-21.888-152.96-65.664c-39.040-43.733-58.581-109.483-58.581-197.419 0-89.216 19.541-156.032 58.581-200.32 39.083-44.288 88.448-66.432 148.267-66.432 22.229 0 43.221 3.669 63.019 10.965-27.439 18.504-58.901 34.665-92.248 46.927l40.194 89.052c55.54-19.667 103.646-46.119 146.526-79.041z" />
<glyph unicode="&#xe952;" glyph-name="hand-point" d="M775.339 544.342h-40.533c-8.85 22.747-30.561 38.581-55.975 38.613h-59.865c-8.84 22.754-30.557 38.594-55.976 38.613h-55.938v152.448c0 43.648-35.499 79.189-79.189 79.189s-79.189-35.541-79.189-79.189v-397.696l-67.456 57.771c-11.766 10.057-27.16 16.177-43.984 16.177-18.642 0-35.529-7.515-47.797-19.68-23.334-23.377-26.449-59.857-8.358-85.286 6.187-10.581 152.533-259.584 210.475-336.896l6.357-8.533h374.144l66.816 233.685c9.914 33.526 15.631 72.047 15.659 111.9v119.695c-0.024 43.725-35.464 79.165-79.187 79.189zM811.989 345.515c0-33.792-4.736-67.541-14.080-100.224l-57.941-202.837h-320.597c-60.544 84.352-200.192 321.963-202.581 325.845-2.872 4.030-4.592 9.055-4.592 14.481 0 6.921 2.798 13.188 7.323 17.733 4.554 4.478 10.806 7.243 17.704 7.243 6.23 0 11.933-2.255 16.337-5.994l137.692-118.029v490.283c0.024 20.232 16.419 36.626 36.648 36.651 20.216-0.049 36.586-16.434 36.61-36.648v-289.581h42.581v94.549h55.936c9.557 0 17.323-7.765 17.323-17.323v-77.227h42.581v55.936h55.936c9.557 0 17.323-7.765 17.323-17.323v-77.227h42.581v55.979h36.608c20.217-0.024 36.602-16.395 36.651-36.603v-119.685z" />
<glyph unicode="&#xe953;" glyph-name="exit" d="M586.88 199.211v-139.904c0-11.782-9.551-21.333-21.333-21.333h-454.699c-11.782 0-21.333 9.551-21.333 21.333v734.507c0 11.782 9.551 21.333 21.333 21.333h454.699c11.782 0 21.333-9.551 21.333-21.333v-139.904c0-11.782-9.551-21.333-21.333-21.333s-21.333 9.551-21.333 21.333v118.571h-412.032v-691.84h412.032v118.571c0 11.782 9.551 21.333 21.333 21.333s21.333-9.551 21.333-21.333zM935.040 400.896c1.036 2.419 1.638 5.233 1.638 8.189 0 5.884-2.387 11.211-6.246 15.064l-174.891 174.891c-3.832 3.705-9.060 5.989-14.821 5.989-11.782 0-21.333-9.551-21.333-21.333 0-5.761 2.283-10.988 5.994-14.827l138.49-138.447h-578.133c-11.782 0-21.333-9.551-21.333-21.333s9.551-21.333 21.333-21.333h578.091l-138.496-138.496c-3.856-3.862-6.241-9.194-6.241-15.083 0-11.789 9.557-21.345 21.345-21.345 5.9 0 11.24 2.393 15.104 6.262l174.891 174.891c1.933 1.923 3.491 4.22 4.557 6.774z" />
<glyph unicode="&#xe954;" glyph-name="calendar" d="M917.12 782.891h-119.381v48.896c0 0.013 0 0.028 0 0.043 0 11.876-9.628 21.504-21.504 21.504-0.015 0-0.030 0-0.045 0h-105.683c0 0 0 0 0 0-11.876 0-21.504-9.628-21.504-21.504 0-0.015 0-0.030 0-0.045v-48.894h-274.005v48.896c0 0 0 0 0 0 0 11.885-9.622 21.522-21.502 21.547h-105.688c-0.013 0-0.028 0-0.043 0-11.876 0-21.504-9.628-21.504-21.504 0-0.015 0-0.030 0-0.045v-48.894h-119.381c-11.89-0.024-21.522-9.657-21.547-21.544v-739.8c0-11.904 9.643-21.547 21.547-21.547h810.24c11.9 0 21.547 9.647 21.547 21.547v739.797c-0.024 11.89-9.657 21.522-21.544 21.547zM692.053 810.24h62.635v-97.835h-62.635v97.835zM269.312 810.24h62.635v-97.835h-62.635v97.835zM226.261 739.798v-48.939c0-11.904 9.643-21.547 21.547-21.547h105.685c0 0 0 0 0 0 11.876 0 21.504 9.628 21.504 21.504 0 0.015 0 0.030 0 0.045v48.936h274.005v-48.939c0-11.904 9.643-21.547 21.504-21.547h105.685c11.9 0 21.547 9.647 21.547 21.547v48.939h97.835v-133.035h-767.189v133.035h97.877zM128.384 43.094v520.576h767.189v-520.576h-767.189zM846.677 422.742c0 0 0 0 0 0 11.9 0 21.547 9.647 21.547 21.547s-9.647 21.547-21.547 21.547c0 0 0 0 0 0h-119.381v48.896c0 11.9-9.647 21.547-21.547 21.547s-21.547-9.647-21.547-21.547v-48.896h-150.656v48.896c0.014 0.286 0.021 0.621 0.021 0.959 0 11.9-9.647 21.547-21.547 21.547s-21.547-9.647-21.547-21.547c0-0.337 0.008-0.672 0.023-1.006l-0.002-48.849h-150.741v48.896c0.014 0.286 0.021 0.621 0.021 0.959 0 11.9-9.647 21.547-21.547 21.547s-21.547-9.647-21.547-21.547c0-0.337 0.008-0.672 0.023-1.006l-0.002-48.849h-119.381c0 0 0 0 0 0-11.9 0-21.547-9.647-21.547-21.547s9.647-21.547 21.547-21.547c0 0 0 0 0 0h119.381v-97.835h-119.381c0 0 0 0 0 0-11.9 0-21.547-9.647-21.547-21.547s9.647-21.547 21.547-21.547c0 0 0 0 0 0h119.381v-97.835h-119.381c-11.9 0-21.547-9.647-21.547-21.547s9.647-21.547 21.547-21.547h119.381v-48.896c-0.014-0.286-0.021-0.621-0.021-0.959 0-11.9 9.647-21.547 21.547-21.547s21.547 9.647 21.547 21.547c0 0.337-0.008 0.672-0.023 1.006l0.002 48.849h150.699v-48.896c-0.014-0.286-0.021-0.621-0.021-0.959 0-11.9 9.647-21.547 21.547-21.547s21.547 9.647 21.547 21.547c0 0.337-0.008 0.672-0.023 1.006l0.002 48.849h150.656v-48.896c0-11.9 9.647-21.547 21.547-21.547s21.547 9.647 21.547 21.547v48.896h119.381c11.9 0 21.547 9.647 21.547 21.547s-9.647 21.547-21.547 21.547h-119.381v97.835h119.381c0 0 0 0 0 0 11.9 0 21.547 9.647 21.547 21.547s-9.647 21.547-21.547 21.547c0 0 0 0 0 0h-119.381v97.835h119.424zM339.755 422.742h150.699v-97.835h-150.699v97.835zM339.755 183.979v97.835h150.699v-97.835h-150.699zM684.203 183.979h-150.656v97.835h150.656v-97.835zM684.203 324.907h-150.656v97.835h150.656v-97.835z" />
<glyph unicode="&#xe955;" glyph-name="clock" d="M940.416 426.667c0-236.629-191.787-428.416-428.416-428.416s-428.416 191.787-428.416 428.416 191.787 428.416 428.416 428.416 428.416-191.787 428.416-428.416zM512 810.667c-212.077 0-384-171.923-384-384s171.923-384 384-384c212.077 0 384 171.923 384 384s-171.923 384-384 384zM517.419 625.024s-3.84 16.555-19.115 16.555-21.632-15.915-21.632-15.915-2.56-207.488 0-208.171c5.717-14.635 221.483-203.051 221.483-203.051s14.464-8.064 25.472 3.2c11.008 11.221 2.56 25.429 2.56 25.429l-209.408 192.256 0.64 189.696z" />
<glyph unicode="&#xe956;" glyph-name="other-account" d="M640 298.667v112.128c51.712 44.928 85.376 116.139 85.376 196.437 0 135.68-95.701 246.101-213.376 246.101-117.632 0-213.333-110.421-213.333-246.144 0-81.109 34.347-153.003 86.997-197.845h-1.664v-83.328l-156.373-71.253c-49.493-17.323-99.627-66.432-99.627-126.763v-85.333h426.667v42.667h-384v42.667c0 35.115 30.549 72.32 72.832 87.253l183.168 83.328v83.243c26.155-13.269 54.997-20.693 85.333-20.693s59.179 7.467 85.333 20.651v-83.115h42.667zM512 810.667c84.779 0 154.752-74.24 167.979-170.923l-1.237-0.128c-61.227-11.691-98.005 3.968-126.933 53.803l-19.328 33.067-18.005-33.835c-16.469-31.019-82.816-52.651-131.968-52.651-15.232 0-24.533 3.712-37.163 10.197 16.597 91.563 84.949 160.469 166.656 160.469zM512 403.798c-93.525 0-169.557 90.155-170.496 201.387 11.52-4.608 24.107-7.851 41.003-7.851 50.773 0 113.365 17.237 149.248 49.749 28.672-36.181 65.237-53.717 112.171-53.717 11.819 0 24.704 1.579 37.973 3.797-4.523-107.392-78.635-193.365-169.899-193.365zM788.48 43.094c-0.133 4.199-0.226 9.339-0.255 14.493-0.001 19.341 2.687 35.896 8.106 49.848 3.968 10.453 10.411 21.035 19.243 31.701 6.528 7.808 18.261 19.115 35.115 34.091 16.896 14.933 27.904 26.795 32.981 35.669 5.035 8.832 7.595 18.56 7.595 29.013 0 18.987-7.424 35.712-22.229 50.091s-32.981 21.547-54.528 21.547c-20.779 0-38.187-6.485-52.096-19.499-13.909-13.056-23.040-33.365-27.392-61.056l-50.219 5.973c4.48 37.077 17.963 65.451 40.277 85.163s51.883 29.568 88.576 29.568c38.869 0 69.888-10.581 93.056-31.744s34.688-46.763 34.688-76.757c0-17.365-4.053-33.365-12.203-48.043-8.107-14.677-24.021-32.469-47.744-53.461-15.915-14.080-26.283-24.491-31.147-31.147-4.77-6.584-8.506-14.281-10.765-22.587-2.462-9.157-3.827-23.279-4.168-42.821h-46.891zM785.536-54.826v55.637h55.595v-55.637h-55.595z" />
<glyph unicode="&#xe957;" glyph-name="lock-tick" d="M426.667 192.342v67.712c-24.576 8.96-42.24 32.725-42.24 60.288 0 35.115 28.459 63.573 63.573 63.573s63.573-28.459 63.573-63.573c0-27.605-17.664-51.328-42.24-60.288v-67.712c0-11.776-8.619-21.333-20.48-21.333s-22.187 9.515-22.187 21.333zM510.72 43.008c5.675-14.848 12.459-29.099 20.352-42.667h-403.072v554.667h85.333v83.456c0 118.613 105.301 215.211 234.667 215.211s234.667-96.555 234.667-215.211v-83.456h85.333v-107.733c-14.507-1.024-28.8-2.987-42.667-5.973v70.997h-554.667v-469.333h340.053zM256 555.008h384v83.456c0 95.147-86.187 172.544-192 172.544s-192-77.44-192-172.544v-83.456zM1024 149.248c0-129.195-105.259-234.581-234.667-234.581-129.365 0-234.667 105.259-234.667 234.667 0 129.365 105.301 234.667 234.667 234.667 129.408 0 234.667-105.301 234.667-234.667zM981.333 149.248c0 105.984-86.187 192.085-192 192.085s-192-86.187-192-192 86.187-192 192-192 192 86.187 192 192zM884.224 253.782c-10.539 5.205-23.296 0.853-28.587-9.6l-72.107-144.128-64 64.299c-8.363 8.405-21.888 8.32-30.208 0.085-8.363-8.32-8.363-21.845-0.085-30.165l84.992-85.333c4.011-4.053 9.472-6.272 15.104-6.272 1.109 0 2.261 0.085 3.413 0.299 6.741 1.067 12.587 5.376 15.659 11.52l85.333 170.667c5.248 10.496 1.024 23.296-9.515 28.587z" />
<glyph unicode="&#xe958;" glyph-name="leaf" d="M912 850.347c-26.624-2.859-653.525-73.557-797.355-376.32-51.072-107.392-34.133-230.144 48.981-364.8l-51.2-51.2 30.165-30.123 50.944 50.944c83.371-52.053 159.573-78.848 233.131-78.848 44.373 0 89.472 9.899 129.707 28.885 303.147 142.592 376.149 771.243 379.136 797.952l3.157 26.795-26.667-3.285zM538.24 67.499c-90.88-42.88-196.437-27.989-313.515 42.581l60.885 60.928 183.723 0.213-0.085 42.667-140.885-0.128 128 128 140.971-0.427v42.667l-98.347 0.341 128 128h55.68v42.667h-42.667v42.667h-42.667v-54.613l-128-128.085 0.085 97.28-42.667 0.085-0.171-140.117-128-128 0.171 140.075h-42.667l-0.085-182.699-61.355-61.227c-70.4 117.973-84.907 224.085-41.557 315.392 117.504 247.381 614.315 331.52 736.341 348.672-17.493-122.155-103.509-620.459-351.317-736.939z" />
<glyph unicode="&#xe959;" glyph-name="computer-tick" d="M789.333 384c-129.365 0-234.667-105.301-234.667-234.667 0-129.408 105.301-234.667 234.667-234.667 129.408 0 234.667 105.259 234.667 234.667 0 129.365-105.259 234.667-234.667 234.667zM789.333-42.666c-105.813 0-192 86.187-192 192s86.187 192 192 192 192-86.187 192-192-86.187-192-192-192zM170.667 682.667h682.667v-219.733c-13.909 2.773-28.16 4.352-42.667 5.333v171.733h-597.333v-341.333h292.523c-7.168-13.653-13.227-27.947-18.347-42.667h-316.843v426.667zM487.979 42.667h-210.645c-11.776 0-21.333 9.557-21.333 21.333s9.557 21.333 21.333 21.333h107.307l31.659 42.667h-256.725c-40.96 0-74.24 31.232-74.24 69.675v500.651c0 38.4 33.28 69.675 74.24 69.675h704.853c41.045 0 74.24-31.232 74.24-69.675v-266.24c-13.653 7.253-27.947 13.355-42.667 18.56v247.68c0 14.933-14.080 27.008-31.445 27.008h-704.981c-17.493 0-31.573-12.117-31.573-27.008v-500.651c0-14.933 14.165-27.008 31.573-27.008l267.093 0.341 42.667-0.341c-0.427-7.125 0-14.165 0-21.419 0-7.168 0-14.208 0.085-21.248l-31.659-42.667h37.973c2.987-14.677 7.339-28.8 12.245-42.667zM893.739 225.11l-85.333-170.667c-3.072-6.144-8.96-10.411-15.659-11.52-1.152-0.171-2.304-0.256-3.413-0.256-5.632 0-11.093 2.219-15.147 6.315l-84.992 85.333c-8.277 8.32-8.277 21.845 0.085 30.165 8.32 8.235 21.845 8.32 30.165-0.085l64-64.299 72.107 144.128c5.333 10.496 18.091 14.805 28.587 9.557 10.667-5.333 14.848-18.133 9.6-28.672z" />
<glyph unicode="&#xe960;" glyph-name="sms-alert" d="M490.667 426.667c-11.776 0-21.333-9.557-21.333-21.333v-149.333h-341.333v256h192c11.776 0 21.333 9.557 21.333 21.333s-9.557 21.333-21.333 21.333h-192v64c0 28.16 23.125 64 49.152 64h142.848c11.776 0 21.333 9.557 21.333 21.333s-9.557 21.333-21.333 21.333h-142.848c-51.712 0-91.819-57.344-91.819-106.667v-526.848c0-50.603 41.173-91.819 91.819-91.819h228.181c49.323 0 106.667 40.107 106.667 91.819v313.515c0 11.776-9.557 21.333-21.333 21.333zM405.333 42.667h-228.181c-27.093 0-49.152 22.059-49.152 49.152v121.515h341.333v-121.515c0-26.027-35.84-49.152-64-49.152zM343.168 128c0-23.552-19.115-42.667-42.667-42.667s-42.667 19.115-42.667 42.667 19.115 42.667 42.667 42.667 42.667-19.115 42.667-42.667zM341.333 620.544c0-11.776-9.557-21.333-21.333-21.333h-42.667c-11.776 0-21.333 9.557-21.333 21.333s9.557 21.333 21.333 21.333h42.667c11.776 0 21.333-9.557 21.333-21.333zM870.4 853.334h-375.467c-37.632 0-68.267-33.28-68.267-74.24v-203.093c0-38.272 27.435-64 68.267-64h59.733v-64c0-8.619 5.205-16.427 13.227-19.712 2.56-1.067 5.376-1.621 8.107-1.621 5.547 0 11.008 2.133 15.104 6.229l79.061 79.104h200.235c40.832 0 68.267 25.728 68.267 64v203.093c0 40.96-30.635 74.24-68.267 74.24zM896 576c0-5.845 0-21.333-25.6-21.333h-209.067c-5.675 0-11.093-2.261-15.104-6.229l-48.896-48.939v33.835c0 11.776-9.557 21.333-21.333 21.333h-81.067c-25.6 0-25.6 16.043-25.6 21.333v203.093c0 17.408 11.52 31.573 25.6 31.573h375.467c14.080 0 25.6-14.165 25.6-31.573v-203.093zM703.445 704c0-11.776-9.557-21.333-21.333-21.333s-21.333 9.557-21.333 21.333 9.557 21.333 21.333 21.333 21.333-9.557 21.333-21.333zM809.173 704c0-11.776-9.557-21.333-21.333-21.333s-21.333 9.557-21.333 21.333 9.557 21.333 21.333 21.333c11.819 0 21.333-9.557 21.333-21.333zM598.827 704c0-11.776-9.557-21.333-21.333-21.333s-21.333 9.557-21.333 21.333 9.557 21.333 21.333 21.333 21.333-9.557 21.333-21.333z" />
</font>
</defs>
</svg>
